<?xml version="1.0" encoding="UTF-8" standalone="no"?>
<!DOCTYPE svg PUBLIC "-//W3C//DTD SVG 1.1//EN"
 "http://www.w3.org/Graphics/SVG/1.1/DTD/svg11.dtd">
<!-- Generated by graphviz version 2.26.3 (20100126.1600)
 -->
<!-- Title: _anonymous_0 Pages: 1 -->
<svg width="864pt" height="438pt"
 viewBox="0.00 0.00 864.00 438.45" xmlns="http://www.w3.org/2000/svg" xmlns:xlink="http://www.w3.org/1999/xlink">
<g id="graph1" class="graph" transform="scale(0.716418 0.716418) rotate(0) translate(4 608)">
<title>_anonymous_0</title>
<polygon fill="white" stroke="white" points="-4,5 -4,-608 1203,-608 1203,5 -4,5"/>
<!-- enotes -->
<g id="node1" class="node"><title>enotes</title>
<polygon fill="#eeeeee" stroke="#eeeeee" points="743,-604 689,-604 689,-568 743,-568 743,-604"/>
<text text-anchor="middle" x="716" y="-584.3" font-family="Verdana" font-size="8.00">enotes</text>
</g>
<!-- _attachments -->
<g id="node3" class="node"><title>_attachments</title>
<ellipse fill="#eeeeee" stroke="#eeeeee" cx="74" cy="-532" rx="43.0604" ry="18"/>
<text text-anchor="middle" x="74" y="-530.3" font-family="Verdana" font-size="8.00">_attachments</text>
</g>
<!-- enotes&#45;&gt;_attachments -->
<g id="edge2" class="edge"><title>enotes&#45;&gt;_attachments</title>
<path fill="none" stroke="#31cef0" d="M688.824,-583.714C589.839,-575.388 247.775,-546.617 121.404,-535.987"/>
<polygon fill="#31cef0" stroke="#31cef0" points="121.403,-534.231 116.274,-535.556 121.11,-537.719 121.403,-534.231"/>
</g>
<!-- evently -->
<g id="node9" class="node"><title>evently</title>
<ellipse fill="#eeeeee" stroke="#eeeeee" cx="716" cy="-532" rx="27.7601" ry="18"/>
<text text-anchor="middle" x="716" y="-530.3" font-family="Verdana" font-size="8.00">evently</text>
</g>
<!-- enotes&#45;&gt;evently -->
<g id="edge8" class="edge"><title>enotes&#45;&gt;evently</title>
<path fill="none" stroke="#31cef0" d="M716,-567.718C716,-563.76 716,-559.521 716,-555.397"/>
<polygon fill="#31cef0" stroke="#31cef0" points="717.75,-555.263 716,-550.263 714.25,-555.263 717.75,-555.263"/>
</g>
<!-- views -->
<g id="node101" class="node"><title>views</title>
<ellipse fill="#eeeeee" stroke="#eeeeee" cx="1043" cy="-532" rx="27" ry="18"/>
<text text-anchor="middle" x="1043" y="-530.3" font-family="Verdana" font-size="8.00">views</text>
</g>
<!-- enotes&#45;&gt;views -->
<g id="edge100" class="edge"><title>enotes&#45;&gt;views</title>
<path fill="none" stroke="#31cef0" d="M743.038,-581.535C803.018,-571.63 946.973,-547.858 1011.17,-537.257"/>
<polygon fill="#31cef0" stroke="#31cef0" points="1011.74,-538.936 1016.39,-536.395 1011.17,-535.483 1011.74,-538.936"/>
</g>
<!-- index.html -->
<g id="node5" class="node"><title>index.html</title>
<ellipse fill="#eeeeee" stroke="#eeeeee" cx="36" cy="-478" rx="35.9971" ry="18"/>
<text text-anchor="middle" x="36" y="-476.3" font-family="Verdana" font-size="8.00">index.html</text>
</g>
<!-- _attachments&#45;&gt;index.html -->
<g id="edge4" class="edge"><title>_attachments&#45;&gt;index.html</title>
<path fill="none" stroke="#31cef0" d="M61.7674,-514.617C58.3095,-509.703 54.5076,-504.3 50.911,-499.189"/>
<polygon fill="#31cef0" stroke="#31cef0" points="52.2588,-498.064 47.9501,-494.982 49.3964,-500.078 52.2588,-498.064"/>
</g>
<!-- logic.js -->
<g id="node7" class="node"><title>logic.js</title>
<ellipse fill="#eeeeee" stroke="#eeeeee" cx="458" cy="-18" rx="27.1641" ry="18"/>
<text text-anchor="middle" x="458" y="-16.3" font-family="Verdana" font-size="8.00">logic.js</text>
</g>
<!-- _attachments&#45;&gt;logic.js -->
<g id="edge6" class="edge"><title>_attachments&#45;&gt;logic.js</title>
<path fill="none" stroke="#31cef0" d="M74,-514C74,-503.5 74,-490 74,-478 74,-478 74,-478 74,-72 74,-36.5681 333.68,-22.8931 425.947,-19.1526"/>
<polygon fill="#31cef0" stroke="#31cef0" points="426.072,-20.8991 430.998,-18.951 425.932,-17.4019 426.072,-20.8991"/>
</g>
<!-- index.html&#45;&gt;logic.js -->
<g id="edge112" class="edge"><title>index.html&#45;&gt;logic.js</title>
<path fill="none" stroke="grey" d="M41.3998,-459.69C50.2815,-427.905 67,-360.329 67,-302 67,-302 67,-302 67,-72 67,-59.273 63.378,-52.3302 73,-44 86.2528,-32.5264 335.253,-22.4323 425.6,-19.1333"/>
<polygon fill="grey" stroke="grey" points="425.874,-20.8746 430.808,-18.9443 425.747,-17.3769 425.874,-20.8746"/>
<text text-anchor="middle" x="75" y="-212.6" font-family="Times Roman,serif" font-size="6.00" fill="grey">loads</text>
</g>
<!-- addPage -->
<g id="node11" class="node"><title>addPage</title>
<ellipse fill="#eeeeee" stroke="#eeeeee" cx="974" cy="-478" rx="31.1991" ry="18"/>
<text text-anchor="middle" x="974" y="-476.3" font-family="Verdana" font-size="8.00">addPage</text>
</g>
<!-- evently&#45;&gt;addPage -->
<g id="edge10" class="edge"><title>evently&#45;&gt;addPage</title>
<path fill="none" stroke="#31cef0" d="M744.055,-529.709C786.078,-525.756 867.533,-516.071 934,-496 937.793,-494.855 941.697,-493.431 945.509,-491.89"/>
<polygon fill="#31cef0" stroke="#31cef0" points="946.343,-493.438 950.274,-489.887 944.987,-490.211 946.343,-493.438"/>
</g>
<!-- editContent -->
<g id="node23" class="node"><title>editContent</title>
<ellipse fill="#eeeeee" stroke="#eeeeee" cx="572" cy="-478" rx="38.8518" ry="18"/>
<text text-anchor="middle" x="572" y="-476.3" font-family="Verdana" font-size="8.00">editContent</text>
</g>
<!-- evently&#45;&gt;editContent -->
<g id="edge22" class="edge"><title>evently&#45;&gt;editContent</title>
<path fill="none" stroke="#31cef0" d="M691.572,-522.84C668.382,-514.143 633.272,-500.977 607.089,-491.159"/>
<polygon fill="#31cef0" stroke="#31cef0" points="607.605,-489.483 602.309,-489.366 606.376,-492.76 607.605,-489.483"/>
</g>
<!-- editPage -->
<g id="node47" class="node"><title>editPage</title>
<ellipse fill="#eeeeee" stroke="#eeeeee" cx="902" cy="-478" rx="31.1991" ry="18"/>
<text text-anchor="middle" x="902" y="-476.3" font-family="Verdana" font-size="8.00">editPage</text>
</g>
<!-- evently&#45;&gt;editPage -->
<g id="edge46" class="edge"><title>evently&#45;&gt;editPage</title>
<path fill="none" stroke="#31cef0" d="M741.863,-524.492C775.067,-514.852 832.719,-498.114 869.037,-487.57"/>
<polygon fill="#31cef0" stroke="#31cef0" points="869.922,-489.135 874.236,-486.061 868.946,-485.774 869.922,-489.135"/>
</g>
<!-- tagListPage -->
<g id="node51" class="node"><title>tagListPage</title>
<ellipse fill="#eeeeee" stroke="#eeeeee" cx="779" cy="-478" rx="37.7662" ry="18"/>
<text text-anchor="middle" x="779" y="-476.3" font-family="Verdana" font-size="8.00">tagListPage</text>
</g>
<!-- evently&#45;&gt;tagListPage -->
<g id="edge50" class="edge"><title>evently&#45;&gt;tagListPage</title>
<path fill="none" stroke="#31cef0" d="M732.883,-517.529C740.018,-511.414 748.438,-504.196 756.118,-497.614"/>
<polygon fill="#31cef0" stroke="#31cef0" points="757.638,-498.615 760.295,-494.033 755.36,-495.958 757.638,-498.615"/>
</g>
<!-- tagListContent -->
<g id="node61" class="node"><title>tagListContent</title>
<ellipse fill="#eeeeee" stroke="#eeeeee" cx="716" cy="-434" rx="45.9157" ry="18"/>
<text text-anchor="middle" x="716" y="-432.3" font-family="Verdana" font-size="8.00">tagListContent</text>
</g>
<!-- evently&#45;&gt;tagListContent -->
<g id="edge60" class="edge"><title>evently&#45;&gt;tagListContent</title>
<path fill="none" stroke="#31cef0" d="M716,-513.567C716,-497.588 716,-474.389 716,-457.16"/>
<polygon fill="#31cef0" stroke="#31cef0" points="717.75,-457.019 716,-452.019 714.25,-457.019 717.75,-457.019"/>
</g>
<!-- titleListPage -->
<g id="node79" class="node"><title>titleListPage</title>
<ellipse fill="#eeeeee" stroke="#eeeeee" cx="412" cy="-478" rx="40.0291" ry="18"/>
<text text-anchor="middle" x="412" y="-476.3" font-family="Verdana" font-size="8.00">titleListPage</text>
</g>
<!-- evently&#45;&gt;titleListPage -->
<g id="edge78" class="edge"><title>evently&#45;&gt;titleListPage</title>
<path fill="none" stroke="#31cef0" d="M687.965,-530.117C647.145,-527.026 569.116,-519.793 504,-506 485.498,-502.081 465.355,-496.147 448.648,-490.75"/>
<polygon fill="#31cef0" stroke="#31cef0" points="448.875,-488.983 443.578,-489.095 447.788,-492.31 448.875,-488.983"/>
</g>
<!-- titleListContent -->
<g id="node83" class="node"><title>titleListContent</title>
<ellipse fill="#eeeeee" stroke="#eeeeee" cx="476" cy="-434" rx="47.093" ry="18"/>
<text text-anchor="middle" x="476" y="-432.3" font-family="Verdana" font-size="8.00">titleListContent</text>
</g>
<!-- evently&#45;&gt;titleListContent -->
<g id="edge82" class="edge"><title>evently&#45;&gt;titleListContent</title>
<path fill="none" stroke="#31cef0" d="M688.162,-528.74C643.542,-523.154 558.35,-510.902 532,-496 514.837,-486.294 500.112,-469.414 490.074,-455.715"/>
<polygon fill="#31cef0" stroke="#31cef0" points="491.445,-454.625 487.112,-451.578 488.599,-456.662 491.445,-454.625"/>
</g>
<!-- pagebeforeshow.js -->
<g id="node13" class="node"><title>pagebeforeshow.js</title>
<ellipse fill="#eeeeee" stroke="#eeeeee" cx="1057" cy="-346" rx="57.1873" ry="18"/>
<text text-anchor="middle" x="1057" y="-344.3" font-family="Verdana" font-size="8.00">pagebeforeshow.js</text>
</g>
<!-- addPage&#45;&gt;pagebeforeshow.js -->
<g id="edge12" class="edge"><title>addPage&#45;&gt;pagebeforeshow.js</title>
<path fill="none" stroke="#31cef0" d="M982.943,-460.486C989.845,-446.518 999.313,-426.327 1006,-408 1011.69,-392.4 1006.11,-385.336 1016,-372 1017.91,-369.423 1020.16,-367.038 1022.61,-364.845"/>
<polygon fill="#31cef0" stroke="#31cef0" points="1023.85,-366.089 1026.59,-361.555 1021.62,-363.391 1023.85,-366.089"/>
</g>
<!-- _init -->
<g id="node15" class="node"><title>_init</title>
<ellipse fill="#eeeeee" stroke="#eeeeee" cx="980" cy="-390" rx="27" ry="18"/>
<text text-anchor="middle" x="980" y="-388.3" font-family="Verdana" font-size="8.00">_init</text>
</g>
<!-- addPage&#45;&gt;_init -->
<g id="edge14" class="edge"><title>addPage&#45;&gt;_init</title>
<path fill="none" stroke="#31cef0" d="M975.243,-459.766C976.16,-446.315 977.416,-427.904 978.406,-413.372"/>
<polygon fill="#31cef0" stroke="#31cef0" points="980.164,-413.318 978.758,-408.21 976.672,-413.08 980.164,-413.318"/>
</g>
<!-- shownote  -->
<g id="node25" class="node"><title>shownote </title>
<ellipse fill="#eeeeee" stroke="#eeeeee" cx="855" cy="-72" rx="34.8223" ry="18"/>
<text text-anchor="middle" x="855" y="-70.3" font-family="Verdana" font-size="8.00">shownote </text>
</g>
<!-- pagebeforeshow.js&#45;&gt;shownote  -->
<g id="edge114" class="edge"><title>pagebeforeshow.js&#45;&gt;shownote </title>
<path fill="none" stroke="grey" d="M1058.31,-327.809C1059.48,-310.021 1061,-282.164 1061,-258 1061,-258 1061,-258 1061,-160 1061,-128.357 1052.78,-114.852 1026,-98 1004.81,-84.6685 938.695,-77.6739 895.155,-74.4167"/>
<polygon fill="grey" stroke="grey" points="895.076,-72.6564 889.962,-74.0378 894.821,-76.1471 895.076,-72.6564"/>
<text text-anchor="middle" x="1072.5" y="-212.6" font-family="Times Roman,serif" font-size="6.00" fill="grey">triggers</text>
</g>
<!-- selectors -->
<g id="node17" class="node"><title>selectors</title>
<ellipse fill="#eeeeee" stroke="#eeeeee" cx="1006" cy="-302" rx="31.8784" ry="18"/>
<text text-anchor="middle" x="1006" y="-300.3" font-family="Verdana" font-size="8.00">selectors</text>
</g>
<!-- _init&#45;&gt;selectors -->
<g id="edge16" class="edge"><title>_init&#45;&gt;selectors</title>
<path fill="none" stroke="#31cef0" d="M985.261,-372.192C989.314,-358.475 994.945,-339.418 999.316,-324.622"/>
<polygon fill="#31cef0" stroke="#31cef0" points="1001.01,-325.073 1000.75,-319.782 997.651,-324.081 1001.01,-325.073"/>
</g>
<!-- input -->
<g id="node19" class="node"><title>input</title>
<ellipse fill="#eeeeee" stroke="#eeeeee" cx="1032" cy="-214" rx="27" ry="18"/>
<text text-anchor="middle" x="1032" y="-212.3" font-family="Verdana" font-size="8.00">input</text>
</g>
<!-- selectors&#45;&gt;input -->
<g id="edge18" class="edge"><title>selectors&#45;&gt;input</title>
<path fill="none" stroke="#31cef0" d="M1023.26,-286.783C1025.98,-283.512 1028.42,-279.865 1030,-276 1034.96,-263.901 1035.66,-249.334 1035.03,-237.36"/>
<polygon fill="#31cef0" stroke="#31cef0" points="1036.76,-236.925 1034.66,-232.06 1033.27,-237.17 1036.76,-236.925"/>
</g>
<!-- click.js -->
<g id="node21" class="node"><title>click.js</title>
<ellipse fill="#eeeeee" stroke="#eeeeee" cx="1032" cy="-160" rx="27.0785" ry="18"/>
<text text-anchor="middle" x="1032" y="-158.3" font-family="Verdana" font-size="8.00">click.js</text>
</g>
<!-- input&#45;&gt;click.js -->
<g id="edge20" class="edge"><title>input&#45;&gt;click.js</title>
<path fill="none" stroke="#31cef0" d="M1032,-195.718C1032,-191.76 1032,-187.521 1032,-183.397"/>
<polygon fill="#31cef0" stroke="#31cef0" points="1033.75,-183.263 1032,-178.263 1030.25,-183.263 1033.75,-183.263"/>
</g>
<!-- click.js&#45;&gt;logic.js -->
<g id="edge118" class="edge"><title>click.js&#45;&gt;logic.js</title>
<path fill="none" stroke="grey" d="M1006.6,-153.715C913.249,-130.623 589.41,-50.5092 488.361,-25.5109"/>
<polygon fill="grey" stroke="grey" points="488.71,-23.7946 483.436,-24.2925 487.869,-27.1921 488.71,-23.7946"/>
<text text-anchor="middle" x="774.5" y="-70.6" font-family="Times Roman,serif" font-size="6.00" fill="grey">doStoreDocument()</text>
</g>
<!-- click.js&#45;&gt;shownote  -->
<g id="edge116" class="edge"><title>click.js&#45;&gt;shownote </title>
<path fill="none" stroke="grey" d="M1028.63,-141.926C1025.01,-127.761 1017.81,-108.713 1004,-98 987.369,-85.1011 933.142,-78.1616 894.925,-74.7759"/>
<polygon fill="grey" stroke="grey" points="895.011,-73.0269 889.879,-74.3411 894.71,-76.514 895.011,-73.0269"/>
<text text-anchor="middle" x="1036.5" y="-114.6" font-family="Times Roman,serif" font-size="6.00" fill="grey">triggers</text>
</g>
<!-- editContent&#45;&gt;shownote  -->
<g id="edge24" class="edge"><title>editContent&#45;&gt;shownote </title>
<path fill="none" stroke="#31cef0" d="M572,-459.798C572,-442.002 572,-414.139 572,-390 572,-390 572,-390 572,-160 572,-134.606 740.294,-96.0457 817.321,-79.7268"/>
<polygon fill="#31cef0" stroke="#31cef0" points="817.729,-81.4293 822.26,-78.6845 817.006,-78.0048 817.729,-81.4293"/>
</g>
<!-- _init  -->
<g id="node35" class="node"><title>_init </title>
<ellipse fill="#eeeeee" stroke="#eeeeee" cx="540" cy="-390" rx="27" ry="18"/>
<text text-anchor="middle" x="540" y="-388.3" font-family="Verdana" font-size="8.00">_init </text>
</g>
<!-- editContent&#45;&gt;_init  -->
<g id="edge34" class="edge"><title>editContent&#45;&gt;_init </title>
<path fill="none" stroke="#31cef0" d="M565.524,-460.192C560.536,-446.475 553.607,-427.418 548.226,-412.622"/>
<polygon fill="#31cef0" stroke="#31cef0" points="549.819,-411.883 546.466,-407.782 546.53,-413.079 549.819,-411.883"/>
</g>
<!-- shownote &#45;&gt;logic.js -->
<g id="edge132" class="edge"><title>shownote &#45;&gt;logic.js</title>
<path fill="none" stroke="grey" d="M821.152,-67.396C745.433,-57.0967 563.26,-32.3175 489.651,-22.3051"/>
<polygon fill="grey" stroke="grey" points="489.732,-20.5501 484.541,-21.6102 489.26,-24.0182 489.732,-20.5501"/>
<text text-anchor="middle" x="674" y="-43.6" font-family="Times Roman,serif" font-size="6.00" fill="grey">doGetDoc()</text>
</g>
<!-- data.js -->
<g id="node27" class="node"><title>data.js</title>
<ellipse fill="#eeeeee" stroke="#eeeeee" cx="826" cy="-18" rx="27.0785" ry="18"/>
<text text-anchor="middle" x="826" y="-16.3" font-family="Verdana" font-size="8.00">data.js</text>
</g>
<!-- shownote &#45;&gt;data.js -->
<g id="edge26" class="edge"><title>shownote &#45;&gt;data.js</title>
<path fill="none" stroke="#31cef0" d="M845.665,-54.6168C843.078,-49.8013 840.24,-44.5162 837.544,-39.4963"/>
<polygon fill="#31cef0" stroke="#31cef0" points="839.027,-38.5587 835.12,-34.9817 835.944,-40.2147 839.027,-38.5587"/>
</g>
<!-- async.js -->
<g id="node29" class="node"><title>async.js</title>
<ellipse fill="#eeeeee" stroke="#eeeeee" cx="884" cy="-18" rx="30.1087" ry="18"/>
<text text-anchor="middle" x="884" y="-16.3" font-family="Verdana" font-size="8.00">async.js</text>
</g>
<!-- shownote &#45;&gt;async.js -->
<g id="edge28" class="edge"><title>shownote &#45;&gt;async.js</title>
<path fill="none" stroke="#31cef0" d="M864.335,-54.6168C866.871,-49.8957 869.649,-44.7233 872.297,-39.7919"/>
<polygon fill="#31cef0" stroke="#31cef0" points="873.858,-40.5836 874.682,-35.3506 870.775,-38.9276 873.858,-40.5836"/>
</g>
<!-- mustache.html -->
<g id="node31" class="node"><title>mustache.html</title>
<ellipse fill="#eeeeee" stroke="#eeeeee" cx="962" cy="-18" rx="47.093" ry="18"/>
<text text-anchor="middle" x="962" y="-16.3" font-family="Verdana" font-size="8.00">mustache.html</text>
</g>
<!-- shownote &#45;&gt;mustache.html -->
<g id="edge30" class="edge"><title>shownote &#45;&gt;mustache.html</title>
<path fill="none" stroke="#31cef0" d="M880.087,-59.3394C894.529,-52.0507 912.863,-42.7979 928.523,-34.895"/>
<polygon fill="#31cef0" stroke="#31cef0" points="929.614,-36.3044 933.29,-32.4893 928.037,-33.1798 929.614,-36.3044"/>
</g>
<!-- after.js -->
<g id="node33" class="node"><title>after.js</title>
<ellipse fill="#eeeeee" stroke="#eeeeee" cx="771" cy="-18" rx="27.1641" ry="18"/>
<text text-anchor="middle" x="771" y="-16.3" font-family="Verdana" font-size="8.00">after.js</text>
</g>
<!-- shownote &#45;&gt;after.js -->
<g id="edge32" class="edge"><title>shownote &#45;&gt;after.js</title>
<path fill="none" stroke="#31cef0" d="M832.93,-57.8121C821.241,-50.2978 806.871,-41.06 794.917,-33.3751"/>
<polygon fill="#31cef0" stroke="#31cef0" points="795.784,-31.8519 790.631,-30.6201 793.891,-34.796 795.784,-31.8519"/>
</g>
<!-- selectors  -->
<g id="node37" class="node"><title>selectors </title>
<ellipse fill="#eeeeee" stroke="#eeeeee" cx="531" cy="-302" rx="34.1425" ry="18"/>
<text text-anchor="middle" x="531" y="-300.3" font-family="Verdana" font-size="8.00">selectors </text>
</g>
<!-- _init &#45;&gt;selectors  -->
<g id="edge36" class="edge"><title>_init &#45;&gt;selectors </title>
<path fill="none" stroke="#31cef0" d="M538.135,-371.766C536.76,-358.315 534.877,-339.904 533.39,-325.372"/>
<polygon fill="#31cef0" stroke="#31cef0" points="535.112,-325.006 532.862,-320.21 531.63,-325.362 535.112,-325.006"/>
</g>
<!-- a[op=delete] -->
<g id="node39" class="node"><title>a[op=delete]</title>
<ellipse fill="#eeeeee" stroke="#eeeeee" cx="448" cy="-214" rx="42.9724" ry="18"/>
<text text-anchor="middle" x="448" y="-212.3" font-family="Verdana" font-size="8.00">a[op=delete]</text>
</g>
<!-- selectors &#45;&gt;a[op=delete] -->
<g id="edge38" class="edge"><title>selectors &#45;&gt;a[op=delete]</title>
<path fill="none" stroke="#31cef0" d="M515.777,-285.859C502.229,-271.496 482.336,-250.405 467.603,-234.784"/>
<polygon fill="#31cef0" stroke="#31cef0" points="468.679,-233.375 463.976,-230.938 466.133,-235.776 468.679,-233.375"/>
</g>
<!-- a[op=save] -->
<g id="node43" class="node"><title>a[op=save]</title>
<ellipse fill="#eeeeee" stroke="#eeeeee" cx="531" cy="-214" rx="38.9412" ry="18"/>
<text text-anchor="middle" x="531" y="-212.3" font-family="Verdana" font-size="8.00">a[op=save]</text>
</g>
<!-- selectors &#45;&gt;a[op=save] -->
<g id="edge42" class="edge"><title>selectors &#45;&gt;a[op=save]</title>
<path fill="none" stroke="#31cef0" d="M531,-283.766C531,-270.315 531,-251.904 531,-237.372"/>
<polygon fill="#31cef0" stroke="#31cef0" points="532.75,-237.21 531,-232.21 529.25,-237.21 532.75,-237.21"/>
</g>
<!--  click.js -->
<g id="node41" class="node"><title> click.js</title>
<ellipse fill="#eeeeee" stroke="#eeeeee" cx="450" cy="-116" rx="28.8445" ry="18"/>
<text text-anchor="middle" x="450" y="-114.3" font-family="Verdana" font-size="8.00"> click.js</text>
</g>
<!-- a[op=delete]&#45;&gt; click.js -->
<g id="edge40" class="edge"><title>a[op=delete]&#45;&gt; click.js</title>
<path fill="none" stroke="#31cef0" d="M448.376,-195.567C448.702,-179.588 449.176,-156.389 449.527,-139.16"/>
<polygon fill="#31cef0" stroke="#31cef0" points="451.28,-139.054 449.632,-134.019 447.781,-138.983 451.28,-139.054"/>
</g>
<!--  click.js&#45;&gt;logic.js -->
<g id="edge134" class="edge"><title> click.js&#45;&gt;logic.js</title>
<path fill="none" stroke="grey" d="M456.999,-98.3021C457.827,-95.5608 458.541,-92.7321 459,-90 461.714,-73.8599 461.391,-55.3971 460.427,-41.2088"/>
<polygon fill="grey" stroke="grey" points="462.169,-41.0409 460.047,-36.1871 458.679,-41.3049 462.169,-41.0409"/>
<text text-anchor="middle" x="493.5" y="-70.6" font-family="Times Roman,serif" font-size="6.00" fill="grey">doDeleteDocument()</text>
</g>
<!--  &#160;click.js -->
<g id="node45" class="node"><title> &#160;click.js</title>
<ellipse fill="#eeeeee" stroke="#eeeeee" cx="485" cy="-160" rx="30.1087" ry="18"/>
<text text-anchor="middle" x="485" y="-158.3" font-family="Verdana" font-size="8.00"> &#160;click.js</text>
</g>
<!-- a[op=save]&#45;&gt; &#160;click.js -->
<g id="edge44" class="edge"><title>a[op=save]&#45;&gt; &#160;click.js</title>
<path fill="none" stroke="#31cef0" d="M516.697,-197.21C512.069,-191.776 506.889,-185.696 502.08,-180.05"/>
<polygon fill="#31cef0" stroke="#31cef0" points="503.396,-178.896 498.821,-176.225 500.731,-181.166 503.396,-178.896"/>
</g>
<!--  &#160;click.js&#45;&gt;logic.js -->
<g id="edge136" class="edge"><title> &#160;click.js&#45;&gt;logic.js</title>
<path fill="none" stroke="grey" d="M484.022,-141.99C483.16,-129.56 481.622,-112.691 479,-98 475.532,-78.5684 469.734,-56.9388 465.108,-41.0743"/>
<polygon fill="grey" stroke="grey" points="466.682,-40.227 463.589,-35.9267 463.325,-41.2176 466.682,-40.227"/>
<text text-anchor="middle" x="507.5" y="-70.6" font-family="Times Roman,serif" font-size="6.00" fill="grey">doStoreDocument()</text>
</g>
<!--  &#160;click.js&#45;&gt;shownote  -->
<g id="edge138" class="edge"><title> &#160;click.js&#45;&gt;shownote </title>
<path fill="none" stroke="grey" d="M500.658,-144.455C516.617,-129.682 542.826,-108.247 570,-98 575.661,-95.8655 737.769,-81.9214 814.923,-75.3789"/>
<polygon fill="grey" stroke="grey" points="815.494,-77.087 820.328,-74.9209 815.198,-73.5995 815.494,-77.087"/>
<text text-anchor="middle" x="581.5" y="-114.6" font-family="Times Roman,serif" font-size="6.00" fill="grey">triggers</text>
</g>
<!--  pagebeforeshow.js -->
<g id="node49" class="node"><title> pagebeforeshow.js</title>
<ellipse fill="#eeeeee" stroke="#eeeeee" cx="970" cy="-258" rx="58.9553" ry="18"/>
<text text-anchor="middle" x="970" y="-256.3" font-family="Verdana" font-size="8.00"> pagebeforeshow.js</text>
</g>
<!-- editPage&#45;&gt; pagebeforeshow.js -->
<g id="edge48" class="edge"><title>editPage&#45;&gt; pagebeforeshow.js</title>
<path fill="none" stroke="#31cef0" d="M907.565,-459.996C919.873,-420.175 949.388,-324.685 962.958,-280.784"/>
<polygon fill="#31cef0" stroke="#31cef0" points="964.649,-281.238 964.454,-275.944 961.305,-280.204 964.649,-281.238"/>
</g>
<!--  pagebeforeshow.js&#45;&gt;shownote  -->
<g id="edge130" class="edge"><title> pagebeforeshow.js&#45;&gt;shownote </title>
<path fill="none" stroke="grey" d="M992.114,-241.116C994.494,-238.339 996.568,-235.284 998,-232 1004.4,-217.334 1004.64,-210.555 998,-196 974.755,-145.077 919.125,-107.018 884.503,-87.2518"/>
<polygon fill="grey" stroke="grey" points="885.187,-85.6286 879.972,-84.7005 883.47,-88.6785 885.187,-85.6286"/>
<text text-anchor="middle" x="1004.5" y="-185.6" font-family="Times Roman,serif" font-size="6.00" fill="grey">triggers</text>
</g>
<!--  &#160;pagebeforeshow.js -->
<g id="node53" class="node"><title> &#160;pagebeforeshow.js</title>
<ellipse fill="#eeeeee" stroke="#eeeeee" cx="779" cy="-390" rx="61.2209" ry="18"/>
<text text-anchor="middle" x="779" y="-388.3" font-family="Verdana" font-size="8.00"> &#160;pagebeforeshow.js</text>
</g>
<!-- tagListPage&#45;&gt; &#160;pagebeforeshow.js -->
<g id="edge52" class="edge"><title>tagListPage&#45;&gt; &#160;pagebeforeshow.js</title>
<path fill="none" stroke="#31cef0" d="M779,-459.766C779,-446.315 779,-427.904 779,-413.372"/>
<polygon fill="#31cef0" stroke="#31cef0" points="780.75,-413.21 779,-408.21 777.25,-413.21 780.75,-413.21"/>
</g>
<!--  selectors -->
<g id="node55" class="node"><title> selectors</title>
<ellipse fill="#eeeeee" stroke="#eeeeee" cx="887" cy="-390" rx="34.1425" ry="18"/>
<text text-anchor="middle" x="887" y="-388.3" font-family="Verdana" font-size="8.00"> selectors</text>
</g>
<!-- tagListPage&#45;&gt; selectors -->
<g id="edge54" class="edge"><title>tagListPage&#45;&gt; selectors</title>
<path fill="none" stroke="#31cef0" d="M798.308,-462.267C816.697,-447.284 844.393,-424.717 863.934,-408.794"/>
<polygon fill="#31cef0" stroke="#31cef0" points="865.45,-409.817 868.221,-405.302 863.239,-407.103 865.45,-409.817"/>
</g>
<!-- _init &#160; -->
<g id="node63" class="node"><title>_init &#160;</title>
<ellipse fill="#eeeeee" stroke="#eeeeee" cx="775" cy="-302" rx="27" ry="18"/>
<text text-anchor="middle" x="775" y="-300.3" font-family="Verdana" font-size="8.00">_init &#160;</text>
</g>
<!--  &#160;pagebeforeshow.js&#45;&gt;_init &#160; -->
<g id="edge126" class="edge"><title> &#160;pagebeforeshow.js&#45;&gt;_init &#160;</title>
<path fill="none" stroke="grey" d="M778.171,-371.766C777.56,-358.315 776.723,-339.904 776.062,-325.372"/>
<polygon fill="grey" stroke="grey" points="777.803,-325.126 775.828,-320.21 774.307,-325.285 777.803,-325.126"/>
<text text-anchor="middle" x="788.5" y="-344.6" font-family="Times Roman,serif" font-size="6.00" fill="grey">triggers</text>
</g>
<!--  a  -->
<g id="node57" class="node"><title> a </title>
<ellipse fill="#eeeeee" stroke="#eeeeee" cx="897" cy="-302" rx="27" ry="18"/>
<text text-anchor="middle" x="897" y="-300.3" font-family="Verdana" font-size="8.00"> a </text>
</g>
<!--  selectors&#45;&gt; a  -->
<g id="edge56" class="edge"><title> selectors&#45;&gt; a </title>
<path fill="none" stroke="#31cef0" d="M889.072,-371.766C890.601,-358.315 892.693,-339.904 894.344,-325.372"/>
<polygon fill="#31cef0" stroke="#31cef0" points="896.105,-325.376 894.931,-320.21 892.627,-324.981 896.105,-325.376"/>
</g>
<!--  click .js -->
<g id="node59" class="node"><title> click .js</title>
<ellipse fill="#eeeeee" stroke="#eeeeee" cx="971" cy="-214" rx="30.1087" ry="18"/>
<text text-anchor="middle" x="971" y="-212.3" font-family="Verdana" font-size="8.00"> click .js</text>
</g>
<!--  a &#45;&gt; click .js -->
<g id="edge58" class="edge"><title> a &#45;&gt; click .js</title>
<path fill="none" stroke="#31cef0" d="M899.062,-283.9C901.232,-267.956 905.151,-246.314 911,-240 919.216,-231.131 925.83,-236.627 937,-232 939.345,-231.029 941.743,-229.949 944.126,-228.815"/>
<polygon fill="#31cef0" stroke="#31cef0" points="945.264,-230.206 948.977,-226.427 943.718,-227.065 945.264,-230.206"/>
</g>
<!-- tagListContent&#45;&gt;_init &#160; -->
<g id="edge62" class="edge"><title>tagListContent&#45;&gt;_init &#160;</title>
<path fill="none" stroke="#31cef0" d="M714.788,-415.76C714.58,-403.077 715.589,-386.001 721,-372 728.571,-352.408 743.478,-333.76 755.715,-320.645"/>
<polygon fill="#31cef0" stroke="#31cef0" points="757.235,-321.586 759.415,-316.758 754.7,-319.172 757.235,-321.586"/>
</g>
<!--  mustache.html -->
<g id="node65" class="node"><title> mustache.html</title>
<ellipse fill="#eeeeee" stroke="#eeeeee" cx="696" cy="-214" rx="48.859" ry="18"/>
<text text-anchor="middle" x="696" y="-212.3" font-family="Verdana" font-size="8.00"> mustache.html</text>
</g>
<!-- _init &#160;&#45;&gt; mustache.html -->
<g id="edge64" class="edge"><title>_init &#160;&#45;&gt; mustache.html</title>
<path fill="none" stroke="#31cef0" d="M760.876,-286.267C748.029,-271.957 728.972,-250.728 714.833,-234.978"/>
<polygon fill="#31cef0" stroke="#31cef0" points="715.993,-233.651 711.351,-231.099 713.389,-235.989 715.993,-233.651"/>
</g>
<!--  after.js -->
<g id="node67" class="node"><title> after.js</title>
<ellipse fill="#eeeeee" stroke="#eeeeee" cx="775" cy="-214" rx="28.9343" ry="18"/>
<text text-anchor="middle" x="775" y="-212.3" font-family="Verdana" font-size="8.00"> after.js</text>
</g>
<!-- _init &#160;&#45;&gt; after.js -->
<g id="edge66" class="edge"><title>_init &#160;&#45;&gt; after.js</title>
<path fill="none" stroke="#31cef0" d="M775,-283.766C775,-270.315 775,-251.904 775,-237.372"/>
<polygon fill="#31cef0" stroke="#31cef0" points="776.75,-237.21 775,-232.21 773.25,-237.21 776.75,-237.21"/>
</g>
<!--  data.js -->
<g id="node69" class="node"><title> data.js</title>
<ellipse fill="#eeeeee" stroke="#eeeeee" cx="834" cy="-214" rx="28.8445" ry="18"/>
<text text-anchor="middle" x="834" y="-212.3" font-family="Verdana" font-size="8.00"> data.js</text>
</g>
<!-- _init &#160;&#45;&gt; data.js -->
<g id="edge68" class="edge"><title>_init &#160;&#45;&gt; data.js</title>
<path fill="none" stroke="#31cef0" d="M786.097,-285.448C795.678,-271.158 809.571,-250.437 819.93,-234.986"/>
<polygon fill="#31cef0" stroke="#31cef0" points="821.421,-235.905 822.752,-230.777 818.514,-233.956 821.421,-235.905"/>
</g>
<!--  query.json -->
<g id="node71" class="node"><title> query.json</title>
<ellipse fill="#eeeeee" stroke="#eeeeee" cx="902" cy="-214" rx="37.7662" ry="18"/>
<text text-anchor="middle" x="902" y="-212.3" font-family="Verdana" font-size="8.00"> query.json</text>
</g>
<!-- _init &#160;&#45;&gt; query.json -->
<g id="edge70" class="edge"><title>_init &#160;&#45;&gt; query.json</title>
<path fill="none" stroke="#31cef0" d="M793.739,-289.015C815.524,-273.92 851.611,-248.916 876.075,-231.964"/>
<polygon fill="#31cef0" stroke="#31cef0" points="877.086,-233.392 880.2,-229.106 875.093,-230.515 877.086,-233.392"/>
</g>
<!--  selectors  -->
<g id="node73" class="node"><title> selectors </title>
<ellipse fill="#eeeeee" stroke="#eeeeee" cx="610" cy="-214" rx="35.9084" ry="18"/>
<text text-anchor="middle" x="610" y="-212.3" font-family="Verdana" font-size="8.00"> selectors </text>
</g>
<!-- _init &#160;&#45;&gt; selectors  -->
<g id="edge72" class="edge"><title>_init &#160;&#45;&gt; selectors </title>
<path fill="none" stroke="#31cef0" d="M752.611,-291.859C742.559,-287.192 730.6,-281.484 720,-276 691.643,-261.33 659.949,-243.285 637.892,-230.453"/>
<polygon fill="#31cef0" stroke="#31cef0" points="638.538,-228.804 633.337,-227.797 636.775,-231.827 638.538,-228.804"/>
</g>
<!--  &#160;a  -->
<g id="node75" class="node"><title> &#160;a </title>
<ellipse fill="#eeeeee" stroke="#eeeeee" cx="543" cy="-160" rx="27" ry="18"/>
<text text-anchor="middle" x="543" y="-158.3" font-family="Verdana" font-size="8.00"> &#160;a </text>
</g>
<!--  selectors &#45;&gt; &#160;a  -->
<g id="edge74" class="edge"><title> selectors &#45;&gt; &#160;a </title>
<path fill="none" stroke="#31cef0" d="M590.98,-198.67C582.734,-192.025 573.04,-184.211 564.531,-177.354"/>
<polygon fill="#31cef0" stroke="#31cef0" points="565.452,-175.848 560.461,-174.073 563.256,-178.574 565.452,-175.848"/>
</g>
<!--  click.js  -->
<g id="node77" class="node"><title> click.js </title>
<ellipse fill="#eeeeee" stroke="#eeeeee" cx="543" cy="-72" rx="30.1087" ry="18"/>
<text text-anchor="middle" x="543" y="-70.3" font-family="Verdana" font-size="8.00"> click.js </text>
</g>
<!--  &#160;a &#45;&gt; click.js  -->
<g id="edge76" class="edge"><title> &#160;a &#45;&gt; click.js </title>
<path fill="none" stroke="#31cef0" d="M543,-141.766C543,-128.315 543,-109.904 543,-95.3721"/>
<polygon fill="#31cef0" stroke="#31cef0" points="544.75,-95.2103 543,-90.2103 541.25,-95.2103 544.75,-95.2103"/>
</g>
<!--  pagebeforeshow.js  -->
<g id="node81" class="node"><title> pagebeforeshow.js </title>
<ellipse fill="#eeeeee" stroke="#eeeeee" cx="381" cy="-390" rx="61.2209" ry="18"/>
<text text-anchor="middle" x="381" y="-388.3" font-family="Verdana" font-size="8.00"> pagebeforeshow.js </text>
</g>
<!-- titleListPage&#45;&gt; pagebeforeshow.js  -->
<g id="edge80" class="edge"><title>titleListPage&#45;&gt; pagebeforeshow.js </title>
<path fill="none" stroke="#31cef0" d="M405.727,-460.192C400.926,-446.565 394.27,-427.669 389.072,-412.915"/>
<polygon fill="#31cef0" stroke="#31cef0" points="390.682,-412.218 387.37,-408.084 387.381,-413.381 390.682,-412.218"/>
</g>
<!-- updateTitleList -->
<g id="node85" class="node"><title>updateTitleList</title>
<ellipse fill="#eeeeee" stroke="#eeeeee" cx="367" cy="-302" rx="45.9157" ry="18"/>
<text text-anchor="middle" x="367" y="-300.3" font-family="Verdana" font-size="8.00">updateTitleList</text>
</g>
<!--  pagebeforeshow.js &#45;&gt;updateTitleList -->
<g id="edge120" class="edge"><title> pagebeforeshow.js &#45;&gt;updateTitleList</title>
<path fill="none" stroke="grey" d="M378.099,-371.766C375.959,-358.315 373.03,-339.904 370.718,-325.372"/>
<polygon fill="grey" stroke="grey" points="372.411,-324.873 369.897,-320.21 368.954,-325.423 372.411,-324.873"/>
<text text-anchor="middle" x="388.5" y="-344.6" font-family="Times Roman,serif" font-size="6.00" fill="grey">triggers</text>
</g>
<!-- titleListContent&#45;&gt;updateTitleList -->
<g id="edge84" class="edge"><title>titleListContent&#45;&gt;updateTitleList</title>
<path fill="none" stroke="#31cef0" d="M468.012,-415.98C461.858,-403.087 452.623,-385.666 442,-372 427.288,-353.073 407.314,-334.698 391.679,-321.527"/>
<polygon fill="#31cef0" stroke="#31cef0" points="392.763,-320.153 387.803,-318.294 390.521,-322.841 392.763,-320.153"/>
</g>
<!--  &#160;data.js &#160; -->
<g id="node87" class="node"><title> &#160;data.js &#160;</title>
<ellipse fill="#eeeeee" stroke="#eeeeee" cx="367" cy="-214" rx="34.1425" ry="18"/>
<text text-anchor="middle" x="367" y="-212.3" font-family="Verdana" font-size="8.00"> &#160;data.js &#160;</text>
</g>
<!-- updateTitleList&#45;&gt; &#160;data.js &#160; -->
<g id="edge86" class="edge"><title>updateTitleList&#45;&gt; &#160;data.js &#160;</title>
<path fill="none" stroke="#31cef0" d="M367,-283.766C367,-270.315 367,-251.904 367,-237.372"/>
<polygon fill="#31cef0" stroke="#31cef0" points="368.75,-237.21 367,-232.21 365.25,-237.21 368.75,-237.21"/>
</g>
<!--  &#160;async.js &#160; -->
<g id="node89" class="node"><title> &#160;async.js &#160;</title>
<ellipse fill="#eeeeee" stroke="#eeeeee" cx="425" cy="-72" rx="37.1721" ry="18"/>
<text text-anchor="middle" x="425" y="-70.3" font-family="Verdana" font-size="8.00"> &#160;async.js &#160;</text>
</g>
<!-- updateTitleList&#45;&gt; &#160;async.js &#160; -->
<g id="edge88" class="edge"><title>updateTitleList&#45;&gt; &#160;async.js &#160;</title>
<path fill="none" stroke="#31cef0" d="M376.324,-284.348C383.279,-270.473 392.493,-250.469 398,-232 415.247,-174.164 409.411,-157.417 420,-98 420.169,-97.0497 420.345,-96.0803 420.524,-95.1014"/>
<polygon fill="#31cef0" stroke="#31cef0" points="422.247,-95.4073 421.44,-90.1717 418.806,-94.7676 422.247,-95.4073"/>
</g>
<!--  &#160;mustache.html &#160; -->
<g id="node91" class="node"><title> &#160;mustache.html &#160;</title>
<ellipse fill="#eeeeee" stroke="#eeeeee" cx="130" cy="-214" rx="54.157" ry="18"/>
<text text-anchor="middle" x="130" y="-212.3" font-family="Verdana" font-size="8.00"> &#160;mustache.html &#160;</text>
</g>
<!-- updateTitleList&#45;&gt; &#160;mustache.html &#160; -->
<g id="edge90" class="edge"><title>updateTitleList&#45;&gt; &#160;mustache.html &#160;</title>
<path fill="none" stroke="#31cef0" d="M325.236,-294.258C304.68,-289.891 279.714,-283.745 258,-276 224.283,-263.974 187.704,-245.685 162.318,-232.083"/>
<polygon fill="#31cef0" stroke="#31cef0" points="162.943,-230.432 157.711,-229.601 161.282,-233.513 162.943,-230.432"/>
</g>
<!--  &#160;after.js &#160; -->
<g id="node93" class="node"><title> &#160;after.js &#160;</title>
<ellipse fill="#eeeeee" stroke="#eeeeee" cx="219" cy="-214" rx="34.2278" ry="18"/>
<text text-anchor="middle" x="219" y="-212.3" font-family="Verdana" font-size="8.00"> &#160;after.js &#160;</text>
</g>
<!-- updateTitleList&#45;&gt; &#160;after.js &#160; -->
<g id="edge92" class="edge"><title>updateTitleList&#45;&gt; &#160;after.js &#160;</title>
<path fill="none" stroke="#31cef0" d="M337.551,-287.979C330.107,-284.244 322.189,-280.102 315,-276 290.328,-261.922 263.226,-244.198 244.129,-231.31"/>
<polygon fill="#31cef0" stroke="#31cef0" points="245.059,-229.827 239.937,-228.473 243.097,-232.725 245.059,-229.827"/>
</g>
<!--  &#160;selectors &#160; -->
<g id="node95" class="node"><title> &#160;selectors &#160;</title>
<ellipse fill="#eeeeee" stroke="#eeeeee" cx="293" cy="-214" rx="38.9412" ry="18"/>
<text text-anchor="middle" x="293" y="-212.3" font-family="Verdana" font-size="8.00"> &#160;selectors &#160;</text>
</g>
<!-- updateTitleList&#45;&gt; &#160;selectors &#160; -->
<g id="edge94" class="edge"><title>updateTitleList&#45;&gt; &#160;selectors &#160;</title>
<path fill="none" stroke="#31cef0" d="M352.38,-284.614C340.445,-270.421 323.533,-250.309 310.808,-235.177"/>
<polygon fill="#31cef0" stroke="#31cef0" points="311.895,-233.751 307.338,-231.05 309.216,-236.004 311.895,-233.751"/>
</g>
<!--  &#160;async.js &#160;&#45;&gt;logic.js -->
<g id="edge122" class="edge"><title> &#160;async.js &#160;&#45;&gt;logic.js</title>
<path fill="none" stroke="grey" d="M435.623,-54.6168C438.566,-49.8013 441.796,-44.5162 444.863,-39.4963"/>
<polygon fill="grey" stroke="grey" points="446.508,-40.1607 447.622,-34.9817 443.522,-38.3356 446.508,-40.1607"/>
<text text-anchor="middle" x="459" y="-43.6" font-family="Times Roman,serif" font-size="6.00" fill="grey">doGetDoc()</text>
</g>
<!--  &#160;async.js &#160;&#45;&gt;logic.js -->
<g id="edge124" class="edge"><title> &#160;async.js &#160;&#45;&gt;logic.js</title>
<path fill="none" stroke="grey" d="M437.285,-54.8399C439.254,-51.9267 441.225,-48.9042 443,-46 444.264,-43.9326 445.536,-41.7501 446.775,-39.5529"/>
<polygon fill="grey" stroke="grey" points="448.375,-40.2767 449.263,-35.0542 445.312,-38.5831 448.375,-40.2767"/>
<text text-anchor="middle" x="472" y="-43.6" font-family="Times Roman,serif" font-size="6.00" fill="grey">makeEmptyNote()</text>
</g>
<!--  &#160;async.js &#160;&#45;&gt;logic.js -->
<g id="edge128" class="edge"><title> &#160;async.js &#160;&#45;&gt;logic.js</title>
<path fill="none" stroke="grey" d="M434.826,-54.4299C436.831,-50.9513 438.954,-47.343 441,-44 441.987,-42.387 443.022,-40.7282 444.075,-39.0662"/>
<polygon fill="grey" stroke="grey" points="445.655,-39.8437 446.877,-34.6892 442.707,-37.9564 445.655,-39.8437"/>
<text text-anchor="middle" x="454.5" y="-43.6" font-family="Times Roman,serif" font-size="6.00" fill="grey">doView()</text>
</g>
<!--  &#160;a &#160; -->
<g id="node97" class="node"><title> &#160;a &#160;</title>
<ellipse fill="#eeeeee" stroke="#eeeeee" cx="293" cy="-160" rx="27" ry="18"/>
<text text-anchor="middle" x="293" y="-158.3" font-family="Verdana" font-size="8.00"> &#160;a &#160;</text>
</g>
<!--  &#160;selectors &#160;&#45;&gt; &#160;a &#160; -->
<g id="edge96" class="edge"><title> &#160;selectors &#160;&#45;&gt; &#160;a &#160;</title>
<path fill="none" stroke="#31cef0" d="M293,-195.718C293,-191.76 293,-187.521 293,-183.397"/>
<polygon fill="#31cef0" stroke="#31cef0" points="294.75,-183.263 293,-178.263 291.25,-183.263 294.75,-183.263"/>
</g>
<!--  &#160;click.js &#160; -->
<g id="node99" class="node"><title> &#160;click.js &#160;</title>
<ellipse fill="#eeeeee" stroke="#eeeeee" cx="293" cy="-72" rx="34.1425" ry="18"/>
<text text-anchor="middle" x="293" y="-70.3" font-family="Verdana" font-size="8.00"> &#160;click.js &#160;</text>
</g>
<!--  &#160;a &#160;&#45;&gt; &#160;click.js &#160; -->
<g id="edge98" class="edge"><title> &#160;a &#160;&#45;&gt; &#160;click.js &#160;</title>
<path fill="none" stroke="#31cef0" d="M293,-141.766C293,-128.315 293,-109.904 293,-95.3721"/>
<polygon fill="#31cef0" stroke="#31cef0" points="294.75,-95.2103 293,-90.2103 291.25,-95.2103 294.75,-95.2103"/>
</g>
<!-- DocbyTag -->
<g id="node103" class="node"><title>DocbyTag</title>
<ellipse fill="#eeeeee" stroke="#eeeeee" cx="1115" cy="-478" rx="34.2278" ry="18"/>
<text text-anchor="middle" x="1115" y="-476.3" font-family="Verdana" font-size="8.00">DocbyTag</text>
</g>
<!-- views&#45;&gt;DocbyTag -->
<g id="edge102" class="edge"><title>views&#45;&gt;DocbyTag</title>
<path fill="none" stroke="#31cef0" d="M1061.17,-518.374C1070.28,-511.539 1081.43,-503.175 1091.22,-495.835"/>
<polygon fill="#31cef0" stroke="#31cef0" points="1092.37,-497.16 1095.32,-492.76 1090.27,-494.36 1092.37,-497.16"/>
</g>
<!-- DocbyTag2 -->
<g id="node109" class="node"><title>DocbyTag2</title>
<ellipse fill="#eeeeee" stroke="#eeeeee" cx="1043" cy="-478" rx="37.1721" ry="18"/>
<text text-anchor="middle" x="1043" y="-476.3" font-family="Verdana" font-size="8.00">DocbyTag2</text>
</g>
<!-- views&#45;&gt;DocbyTag2 -->
<g id="edge108" class="edge"><title>views&#45;&gt;DocbyTag2</title>
<path fill="none" stroke="#31cef0" d="M1043,-513.718C1043,-509.76 1043,-505.521 1043,-501.397"/>
<polygon fill="#31cef0" stroke="#31cef0" points="1044.75,-501.263 1043,-496.263 1041.25,-501.263 1044.75,-501.263"/>
</g>
<!-- map.js -->
<g id="node105" class="node"><title>map.js</title>
<ellipse fill="#eeeeee" stroke="#eeeeee" cx="1171" cy="-390" rx="27.0785" ry="18"/>
<text text-anchor="middle" x="1171" y="-388.3" font-family="Verdana" font-size="8.00">map.js</text>
</g>
<!-- DocbyTag&#45;&gt;map.js -->
<g id="edge104" class="edge"><title>DocbyTag&#45;&gt;map.js</title>
<path fill="none" stroke="#31cef0" d="M1126.06,-460.614C1135.08,-446.451 1147.84,-426.396 1157.46,-411.275"/>
<polygon fill="#31cef0" stroke="#31cef0" points="1159.13,-411.911 1160.34,-406.753 1156.18,-410.032 1159.13,-411.911"/>
</g>
<!-- reduce.js -->
<g id="node107" class="node"><title>reduce.js</title>
<ellipse fill="#eeeeee" stroke="#eeeeee" cx="1110" cy="-390" rx="32.9651" ry="18"/>
<text text-anchor="middle" x="1110" y="-388.3" font-family="Verdana" font-size="8.00">reduce.js</text>
</g>
<!-- DocbyTag&#45;&gt;reduce.js -->
<g id="edge106" class="edge"><title>DocbyTag&#45;&gt;reduce.js</title>
<path fill="none" stroke="#31cef0" d="M1113.96,-459.766C1113.2,-446.315 1112.15,-427.904 1111.33,-413.372"/>
<polygon fill="#31cef0" stroke="#31cef0" points="1113.07,-413.103 1111.03,-408.21 1109.57,-413.302 1113.07,-413.103"/>
</g>
<!-- map.js  -->
<g id="node111" class="node"><title>map.js </title>
<ellipse fill="#eeeeee" stroke="#eeeeee" cx="1043" cy="-390" rx="28.8445" ry="18"/>
<text text-anchor="middle" x="1043" y="-388.3" font-family="Verdana" font-size="8.00">map.js </text>
</g>
<!-- DocbyTag2&#45;&gt;map.js  -->
<g id="edge110" class="edge"><title>DocbyTag2&#45;&gt;map.js </title>
<path fill="none" stroke="#31cef0" d="M1043,-459.766C1043,-446.315 1043,-427.904 1043,-413.372"/>
<polygon fill="#31cef0" stroke="#31cef0" points="1044.75,-413.21 1043,-408.21 1041.25,-413.21 1044.75,-413.21"/>
</g>
</g>
</svg>
