<?xml version="1.0" encoding="UTF-8" standalone="no"?>
<!DOCTYPE svg PUBLIC "-//W3C//DTD SVG 1.1//EN"
 "http://www.w3.org/Graphics/SVG/1.1/DTD/svg11.dtd">
<!-- Generated by graphviz version 2.26.3 (20100126.1600)
 -->
<!-- Title: _anonymous_0 Pages: 1 -->
<svg width="864pt" height="365pt"
 viewBox="0.00 0.00 864.00 364.63" xmlns="http://www.w3.org/2000/svg" xmlns:xlink="http://www.w3.org/1999/xlink">
<g id="graph1" class="graph" transform="scale(0.580623 0.580623) rotate(0) translate(4 624)">
<title>_anonymous_0</title>
<polygon fill="white" stroke="white" points="-4,5 -4,-624 1485.06,-624 1485.06,5 -4,5"/>
<!-- enotes -->
<g id="node1" class="node"><title>enotes</title>
<polygon fill="#eeeeee" stroke="#eeeeee" points="867.056,-620 813.056,-620 813.056,-584 867.056,-584 867.056,-620"/>
<text text-anchor="middle" x="840.056" y="-599.5" font-family="Verdana" font-size="10.00">enotes</text>
</g>
<!-- _attachments -->
<g id="node2" class="node"><title>_attachments</title>
<ellipse fill="#eeeeee" stroke="grey" cx="272.056" cy="-548" rx="52.9405" ry="18"/>
<text text-anchor="middle" x="272.056" y="-545.5" font-family="Verdana" font-size="10.00">_attachments</text>
</g>
<!-- enotes&#45;&gt;_attachments -->
<g id="edge2" class="edge"><title>enotes&#45;&gt;_attachments</title>
<path fill="none" stroke="#555555" d="M813.042,-599.432C725.604,-591.119 449.019,-564.824 328.786,-553.393"/>
<polygon fill="#555555" stroke="#555555" points="328.672,-551.625 323.528,-552.893 328.34,-555.109 328.672,-551.625"/>
</g>
<!-- evently -->
<g id="node3" class="node"><title>evently</title>
<ellipse fill="#eeeeee" stroke="grey" cx="840.056" cy="-548" rx="32.1242" ry="18"/>
<text text-anchor="middle" x="840.056" y="-545.5" font-family="Verdana" font-size="10.00">evently</text>
</g>
<!-- enotes&#45;&gt;evently -->
<g id="edge8" class="edge"><title>enotes&#45;&gt;evently</title>
<path fill="none" stroke="#555555" d="M840.056,-583.718C840.056,-579.76 840.056,-575.521 840.056,-571.397"/>
<polygon fill="#555555" stroke="#555555" points="841.806,-571.263 840.056,-566.263 838.306,-571.263 841.806,-571.263"/>
</g>
<!-- views -->
<g id="node27" class="node"><title>views</title>
<ellipse fill="#eeeeee" stroke="grey" cx="1303.06" cy="-548" rx="27.0858" ry="18"/>
<text text-anchor="middle" x="1303.06" y="-545.5" font-family="Verdana" font-size="10.00">views</text>
</g>
<!-- enotes&#45;&gt;views -->
<g id="edge100" class="edge"><title>enotes&#45;&gt;views</title>
<path fill="none" stroke="#555555" d="M867.29,-598.824C947.888,-589.423 1184.97,-561.773 1271.22,-551.713"/>
<polygon fill="#555555" stroke="#555555" points="1271.67,-553.422 1276.43,-551.105 1271.27,-549.946 1271.67,-553.422"/>
</g>
<!-- index.html -->
<g id="node32" class="node"><title>index.html</title>
<ellipse fill="#eeeeee" stroke="#eeeeee" cx="272.056" cy="-494" rx="41.2443" ry="18"/>
<text text-anchor="middle" x="272.056" y="-491.5" font-family="Verdana" font-size="10.00">index.html</text>
</g>
<!-- _attachments&#45;&gt;index.html -->
<g id="edge4" class="edge"><title>_attachments&#45;&gt;index.html</title>
<path fill="none" stroke="#555555" d="M272.056,-529.718C272.056,-525.76 272.056,-521.521 272.056,-517.397"/>
<polygon fill="#555555" stroke="#555555" points="273.806,-517.263 272.056,-512.263 270.306,-517.263 273.806,-517.263"/>
</g>
<!-- logic.js -->
<g id="node34" class="node"><title>logic.js</title>
<ellipse fill="#eeeeee" stroke="#eeeeee" cx="462.056" cy="-18" rx="30.8966" ry="18"/>
<text text-anchor="middle" x="462.056" y="-15.5" font-family="Verdana" font-size="10.00">logic.js</text>
</g>
<!-- _attachments&#45;&gt;logic.js -->
<g id="edge6" class="edge"><title>_attachments&#45;&gt;logic.js</title>
<path fill="none" stroke="#555555" d="M220.297,-544.018C161.929,-538.066 75.0561,-524.144 75.0561,-494 75.0561,-494 75.0561,-494 75.0561,-80 75.0561,-44.654 330.002,-25.8411 426.04,-20.0082"/>
<polygon fill="#555555" stroke="#555555" points="426.155,-21.7546 431.04,-19.7075 425.944,-18.2609 426.155,-21.7546"/>
</g>
<!-- addPage -->
<g id="node4" class="node"><title>addPage</title>
<ellipse fill="#eeeeee" stroke="grey" cx="1127.06" cy="-494" rx="35.8221" ry="18"/>
<text text-anchor="middle" x="1127.06" y="-491.5" font-family="Verdana" font-size="10.00">addPage</text>
</g>
<!-- evently&#45;&gt;addPage -->
<g id="edge10" class="edge"><title>evently&#45;&gt;addPage</title>
<path fill="none" stroke="#555555" d="M870.498,-542.272C922.872,-532.418 1029.96,-512.268 1087.84,-501.378"/>
<polygon fill="#555555" stroke="#555555" points="1088.36,-503.062 1092.95,-500.418 1087.71,-499.622 1088.36,-503.062"/>
</g>
<!-- editContent -->
<g id="node8" class="node"><title>editContent</title>
<ellipse fill="#eeeeee" stroke="grey" cx="661.056" cy="-494" rx="46.169" ry="18"/>
<text text-anchor="middle" x="661.056" y="-491.5" font-family="Verdana" font-size="10.00">editContent</text>
</g>
<!-- evently&#45;&gt;editContent -->
<g id="edge22" class="edge"><title>evently&#45;&gt;editContent</title>
<path fill="none" stroke="#555555" d="M811.693,-539.444C782.284,-530.571 736.004,-516.61 702.499,-506.502"/>
<polygon fill="#555555" stroke="#555555" points="702.944,-504.809 697.651,-505.04 701.933,-508.16 702.944,-504.809"/>
</g>
<!-- editPage -->
<g id="node14" class="node"><title>editPage</title>
<ellipse fill="#eeeeee" stroke="grey" cx="1212.06" cy="-494" rx="35.8221" ry="18"/>
<text text-anchor="middle" x="1212.06" y="-491.5" font-family="Verdana" font-size="10.00">editPage</text>
</g>
<!-- evently&#45;&gt;editPage -->
<g id="edge46" class="edge"><title>evently&#45;&gt;editPage</title>
<path fill="none" stroke="#555555" d="M872.24,-547.06C930.984,-544.766 1059.2,-537.074 1164.06,-512 1169.23,-510.764 1174.59,-509.125 1179.79,-507.338"/>
<polygon fill="#555555" stroke="#555555" points="1180.38,-508.987 1184.5,-505.664 1179.2,-505.69 1180.38,-508.987"/>
</g>
<!-- tagListPage -->
<g id="node15" class="node"><title>tagListPage</title>
<ellipse fill="#eeeeee" stroke="grey" cx="914.056" cy="-494" rx="45.0529" ry="18"/>
<text text-anchor="middle" x="914.056" y="-491.5" font-family="Verdana" font-size="10.00">tagListPage</text>
</g>
<!-- evently&#45;&gt;tagListPage -->
<g id="edge50" class="edge"><title>evently&#45;&gt;tagListPage</title>
<path fill="none" stroke="#555555" d="M859.887,-533.529C868.574,-527.189 878.884,-519.666 888.166,-512.893"/>
<polygon fill="#555555" stroke="#555555" points="889.342,-514.201 892.349,-509.84 887.278,-511.374 889.342,-514.201"/>
</g>
<!-- tagListContent -->
<g id="node18" class="node"><title>tagListContent</title>
<ellipse fill="#eeeeee" stroke="grey" cx="840.056" cy="-450" rx="54.9037" ry="18"/>
<text text-anchor="middle" x="840.056" y="-447.5" font-family="Verdana" font-size="10.00">tagListContent</text>
</g>
<!-- evently&#45;&gt;tagListContent -->
<g id="edge60" class="edge"><title>evently&#45;&gt;tagListContent</title>
<path fill="none" stroke="#555555" d="M840.056,-529.567C840.056,-513.588 840.056,-490.389 840.056,-473.16"/>
<polygon fill="#555555" stroke="#555555" points="841.806,-473.019 840.056,-468.019 838.306,-473.019 841.806,-473.019"/>
</g>
<!-- titleListPage -->
<g id="node22" class="node"><title>titleListPage</title>
<ellipse fill="#eeeeee" stroke="grey" cx="540.056" cy="-494" rx="46.9013" ry="18"/>
<text text-anchor="middle" x="540.056" y="-491.5" font-family="Verdana" font-size="10.00">titleListPage</text>
</g>
<!-- evently&#45;&gt;titleListPage -->
<g id="edge78" class="edge"><title>evently&#45;&gt;titleListPage</title>
<path fill="none" stroke="#555555" d="M808.841,-543.84C765.107,-537.827 683.196,-525.892 614.056,-512 604.342,-510.048 593.974,-507.697 584.168,-505.347"/>
<polygon fill="#555555" stroke="#555555" points="584.369,-503.595 579.097,-504.12 583.546,-506.997 584.369,-503.595"/>
</g>
<!-- titleListContent -->
<g id="node23" class="node"><title>titleListContent</title>
<ellipse fill="#eeeeee" stroke="grey" cx="445.056" cy="-450" rx="57.2496" ry="18"/>
<text text-anchor="middle" x="445.056" y="-447.5" font-family="Verdana" font-size="10.00">titleListContent</text>
</g>
<!-- evently&#45;&gt;titleListContent -->
<g id="edge82" class="edge"><title>evently&#45;&gt;titleListContent</title>
<path fill="none" stroke="#555555" d="M807.948,-546.137C727.03,-541.236 519.25,-527.305 492.056,-512 476.193,-503.072 464.006,-486.362 456.022,-472.538"/>
<polygon fill="#555555" stroke="#555555" points="457.44,-471.489 453.476,-467.975 454.384,-473.194 457.44,-471.489"/>
</g>
<!-- _init -->
<g id="node5" class="node"><title>_init</title>
<ellipse fill="#eeeeee" stroke="grey" cx="1127.06" cy="-406" rx="27" ry="18"/>
<text text-anchor="middle" x="1127.06" y="-403.5" font-family="Verdana" font-size="10.00">_init</text>
</g>
<!-- addPage&#45;&gt;_init -->
<g id="edge14" class="edge"><title>addPage&#45;&gt;_init</title>
<path fill="none" stroke="#555555" d="M1127.06,-475.766C1127.06,-462.315 1127.06,-443.904 1127.06,-429.372"/>
<polygon fill="#555555" stroke="#555555" points="1128.81,-429.21 1127.06,-424.21 1125.31,-429.21 1128.81,-429.21"/>
</g>
<!-- pagebeforeshow.js -->
<g id="node38" class="node"><title>pagebeforeshow.js</title>
<ellipse fill="#eeeeee" stroke="#eeeeee" cx="1200.06" cy="-362" rx="67.213" ry="18"/>
<text text-anchor="middle" x="1200.06" y="-359.5" font-family="Verdana" font-size="10.00">pagebeforeshow.js</text>
</g>
<!-- addPage&#45;&gt;pagebeforeshow.js -->
<g id="edge12" class="edge"><title>addPage&#45;&gt;pagebeforeshow.js</title>
<path fill="none" stroke="#555555" d="M1136.75,-476.471C1149.82,-452.836 1173.11,-410.717 1187.51,-384.689"/>
<polygon fill="#555555" stroke="#555555" points="1189.2,-385.247 1190.09,-380.024 1186.14,-383.553 1189.2,-385.247"/>
</g>
<!-- selectors -->
<g id="node6" class="node"><title>selectors</title>
<ellipse fill="#eeeeee" stroke="grey" cx="1167.06" cy="-318" rx="38.1664" ry="18"/>
<text text-anchor="middle" x="1167.06" y="-315.5" font-family="Verdana" font-size="10.00">selectors</text>
</g>
<!-- _init&#45;&gt;selectors -->
<g id="edge16" class="edge"><title>_init&#45;&gt;selectors</title>
<path fill="none" stroke="#555555" d="M1125.12,-387.775C1124.58,-374.783 1125.65,-357.328 1133.06,-344 1134.67,-341.101 1136.75,-338.423 1139.09,-335.977"/>
<polygon fill="#555555" stroke="#555555" points="1140.52,-337.033 1142.95,-332.325 1138.11,-334.49 1140.52,-337.033"/>
</g>
<!-- input -->
<g id="node7" class="node"><title>input</title>
<ellipse fill="#eeeeee" stroke="grey" cx="1186.06" cy="-230" rx="27" ry="18"/>
<text text-anchor="middle" x="1186.06" y="-227.5" font-family="Verdana" font-size="10.00">input</text>
</g>
<!-- selectors&#45;&gt;input -->
<g id="edge18" class="edge"><title>selectors&#45;&gt;input</title>
<path fill="none" stroke="#555555" d="M1170.99,-299.766C1173.92,-286.226 1177.93,-267.658 1181.07,-253.082"/>
<polygon fill="#555555" stroke="#555555" points="1182.84,-253.166 1182.19,-247.909 1179.42,-252.427 1182.84,-253.166"/>
</g>
<!-- click.js -->
<g id="node43" class="node"><title>click.js</title>
<ellipse fill="#eeeeee" stroke="#eeeeee" cx="871.056" cy="-168" rx="30.7794" ry="18"/>
<text text-anchor="middle" x="871.056" y="-165.5" font-family="Verdana" font-size="10.00">click.js</text>
</g>
<!-- input&#45;&gt;click.js -->
<g id="edge20" class="edge"><title>input&#45;&gt;click.js</title>
<path fill="none" stroke="#555555" d="M1166.57,-217.235C1162.86,-215.229 1158.93,-213.369 1155.06,-212 1069.61,-181.787 962.443,-172.297 907.393,-169.333"/>
<polygon fill="#555555" stroke="#555555" points="907.315,-167.577 902.231,-169.066 907.134,-171.072 907.315,-167.577"/>
</g>
<!-- shownote  -->
<g id="node9" class="node"><title>shownote </title>
<ellipse fill="#eeeeee" stroke="grey" cx="871.056" cy="-80" rx="41.8599" ry="18"/>
<text text-anchor="middle" x="871.056" y="-77.5" font-family="Verdana" font-size="10.00">shownote </text>
</g>
<!-- editContent&#45;&gt;shownote  -->
<g id="edge24" class="edge"><title>editContent&#45;&gt;shownote </title>
<path fill="none" stroke="#555555" d="M661.056,-475.798C661.056,-458.002 661.056,-430.139 661.056,-406 661.056,-406 661.056,-406 661.056,-274 661.056,-246.355 649.479,-234.124 666.056,-212 685.458,-186.106 705.847,-201.848 734.056,-186 778.106,-161.253 823.346,-123.332 849.24,-100.188"/>
<polygon fill="#555555" stroke="#555555" points="850.678,-101.249 853.227,-96.6047 848.338,-98.6456 850.678,-101.249"/>
</g>
<!-- _init  -->
<g id="node10" class="node"><title>_init </title>
<ellipse fill="#eeeeee" stroke="grey" cx="629.056" cy="-406" rx="27" ry="18"/>
<text text-anchor="middle" x="629.056" y="-403.5" font-family="Verdana" font-size="10.00">_init </text>
</g>
<!-- editContent&#45;&gt;_init  -->
<g id="edge34" class="edge"><title>editContent&#45;&gt;_init </title>
<path fill="none" stroke="#555555" d="M654.426,-475.766C649.426,-462.016 642.541,-443.083 637.205,-428.409"/>
<polygon fill="#555555" stroke="#555555" points="638.813,-427.711 635.46,-423.61 635.524,-428.907 638.813,-427.711"/>
</g>
<!-- shownote &#45;&gt;logic.js -->
<g id="edge132" class="edge"><title>shownote &#45;&gt;logic.js</title>
<path fill="none" stroke="grey" d="M840.621,-67.2775C835.476,-65.362 830.151,-63.5216 825.056,-62 808.519,-57.0607 803.886,-57.8231 787.056,-54 768.766,-49.8452 764.557,-47.0857 746.056,-44 657.821,-29.2838 552.674,-22.3893 498.435,-19.6061"/>
<polygon fill="grey" stroke="grey" points="498.429,-17.8537 493.347,-19.3495 498.253,-21.3493 498.429,-17.8537"/>
<text text-anchor="middle" x="811.056" y="-46.8" font-family="Times Roman,serif" font-size="8.00" fill="grey">doGetDoc()</text>
</g>
<!-- data.js -->
<g id="node47" class="node"><title>data.js</title>
<ellipse fill="#eeeeee" stroke="#eeeeee" cx="870.056" cy="-18" rx="30.8966" ry="18"/>
<text text-anchor="middle" x="870.056" y="-15.5" font-family="Verdana" font-size="10.00">data.js</text>
</g>
<!-- shownote &#45;&gt;data.js -->
<g id="edge26" class="edge"><title>shownote &#45;&gt;data.js</title>
<path fill="none" stroke="#555555" d="M870.761,-61.7333C870.659,-55.3573 870.542,-48.1116 870.433,-41.3774"/>
<polygon fill="#555555" stroke="#555555" points="872.183,-41.3215 870.352,-36.3504 868.683,-41.378 872.183,-41.3215"/>
</g>
<!-- async.js -->
<g id="node49" class="node"><title>async.js</title>
<ellipse fill="#eeeeee" stroke="#eeeeee" cx="937.056" cy="-18" rx="35.2012" ry="18"/>
<text text-anchor="middle" x="937.056" y="-15.5" font-family="Verdana" font-size="10.00">async.js</text>
</g>
<!-- shownote &#45;&gt;async.js -->
<g id="edge28" class="edge"><title>shownote &#45;&gt;async.js</title>
<path fill="none" stroke="#555555" d="M888.743,-63.3851C897.296,-55.3504 907.613,-45.659 916.513,-37.2985"/>
<polygon fill="#555555" stroke="#555555" points="917.785,-38.5045 920.231,-33.8056 915.388,-35.9536 917.785,-38.5045"/>
</g>
<!-- mustache.html -->
<g id="node51" class="node"><title>mustache.html</title>
<ellipse fill="#eeeeee" stroke="#eeeeee" cx="1028.06" cy="-18" rx="54.7872" ry="18"/>
<text text-anchor="middle" x="1028.06" y="-15.5" font-family="Verdana" font-size="10.00">mustache.html</text>
</g>
<!-- shownote &#45;&gt;mustache.html -->
<g id="edge30" class="edge"><title>shownote &#45;&gt;mustache.html</title>
<path fill="none" stroke="#555555" d="M902.074,-67.7508C926.64,-58.0498 961.142,-44.4246 987.83,-33.8854"/>
<polygon fill="#555555" stroke="#555555" points="988.711,-35.4193 992.718,-31.9551 987.425,-32.1639 988.711,-35.4193"/>
</g>
<!-- after.js -->
<g id="node53" class="node"><title>after.js</title>
<ellipse fill="#eeeeee" stroke="#eeeeee" cx="806.056" cy="-18" rx="32.0105" ry="18"/>
<text text-anchor="middle" x="806.056" y="-15.5" font-family="Verdana" font-size="10.00">after.js</text>
</g>
<!-- shownote &#45;&gt;after.js -->
<g id="edge32" class="edge"><title>shownote &#45;&gt;after.js</title>
<path fill="none" stroke="#555555" d="M853.637,-63.3851C845.214,-55.3504 835.053,-45.659 826.288,-37.2985"/>
<polygon fill="#555555" stroke="#555555" points="827.452,-35.9904 822.627,-33.8056 825.037,-38.523 827.452,-35.9904"/>
</g>
<!-- selectors  -->
<g id="node11" class="node"><title>selectors </title>
<ellipse fill="#eeeeee" stroke="grey" cx="614.056" cy="-318" rx="40.0132" ry="18"/>
<text text-anchor="middle" x="614.056" y="-315.5" font-family="Verdana" font-size="10.00">selectors </text>
</g>
<!-- _init &#45;&gt;selectors  -->
<g id="edge36" class="edge"><title>_init &#45;&gt;selectors </title>
<path fill="none" stroke="#555555" d="M625.948,-387.766C623.655,-374.315 620.517,-355.904 618.04,-341.372"/>
<polygon fill="#555555" stroke="#555555" points="619.725,-340.845 617.16,-336.21 616.275,-341.433 619.725,-340.845"/>
</g>
<!-- a[op=delete] -->
<g id="node12" class="node"><title>a[op=delete]</title>
<ellipse fill="#eeeeee" stroke="grey" cx="518.056" cy="-230" rx="49.8625" ry="18"/>
<text text-anchor="middle" x="518.056" y="-227.5" font-family="Verdana" font-size="10.00">a[op=delete]</text>
</g>
<!-- selectors &#45;&gt;a[op=delete] -->
<g id="edge38" class="edge"><title>selectors &#45;&gt;a[op=delete]</title>
<path fill="none" stroke="#555555" d="M595.999,-301.448C580.144,-286.914 557.031,-265.727 540.09,-250.198"/>
<polygon fill="#555555" stroke="#555555" points="541.227,-248.866 536.358,-246.777 538.862,-251.446 541.227,-248.866"/>
</g>
<!-- a[op=save] -->
<g id="node13" class="node"><title>a[op=save]</title>
<ellipse fill="#eeeeee" stroke="grey" cx="614.056" cy="-230" rx="45.0529" ry="18"/>
<text text-anchor="middle" x="614.056" y="-227.5" font-family="Verdana" font-size="10.00">a[op=save]</text>
</g>
<!-- selectors &#45;&gt;a[op=save] -->
<g id="edge42" class="edge"><title>selectors &#45;&gt;a[op=save]</title>
<path fill="none" stroke="#555555" d="M614.056,-299.766C614.056,-286.315 614.056,-267.904 614.056,-253.372"/>
<polygon fill="#555555" stroke="#555555" points="615.806,-253.21 614.056,-248.21 612.306,-253.21 615.806,-253.21"/>
</g>
<!--  click.js -->
<g id="node58" class="node"><title> click.js</title>
<ellipse fill="#eeeeee" stroke="#eeeeee" cx="508.056" cy="-124" rx="33.2417" ry="18"/>
<text text-anchor="middle" x="508.056" y="-121.5" font-family="Verdana" font-size="10.00"> click.js</text>
</g>
<!-- a[op=delete]&#45;&gt; click.js -->
<g id="edge40" class="edge"><title>a[op=delete]&#45;&gt; click.js</title>
<path fill="none" stroke="#555555" d="M516.314,-211.536C514.637,-193.753 512.092,-166.78 510.271,-147.479"/>
<polygon fill="#555555" stroke="#555555" points="511.99,-147.066 509.778,-142.252 508.505,-147.394 511.99,-147.066"/>
</g>
<!--  &#160;click.js -->
<g id="node61" class="node"><title> &#160;click.js</title>
<ellipse fill="#eeeeee" stroke="#eeeeee" cx="614.056" cy="-168" rx="35.2012" ry="18"/>
<text text-anchor="middle" x="614.056" y="-165.5" font-family="Verdana" font-size="10.00"> &#160;click.js</text>
</g>
<!-- a[op=save]&#45;&gt; &#160;click.js -->
<g id="edge44" class="edge"><title>a[op=save]&#45;&gt; &#160;click.js</title>
<path fill="none" stroke="#555555" d="M614.056,-211.733C614.056,-205.357 614.056,-198.112 614.056,-191.377"/>
<polygon fill="#555555" stroke="#555555" points="615.806,-191.35 614.056,-186.35 612.306,-191.35 615.806,-191.35"/>
</g>
<!--  pagebeforeshow.js -->
<g id="node64" class="node"><title> pagebeforeshow.js</title>
<ellipse fill="#eeeeee" stroke="#eeeeee" cx="1290.06" cy="-274" rx="69.0609" ry="18"/>
<text text-anchor="middle" x="1290.06" y="-271.5" font-family="Verdana" font-size="10.00"> pagebeforeshow.js</text>
</g>
<!-- editPage&#45;&gt; pagebeforeshow.js -->
<g id="edge48" class="edge"><title>editPage&#45;&gt; pagebeforeshow.js</title>
<path fill="none" stroke="#555555" d="M1222.43,-476.438C1234.94,-454.548 1255.82,-415.664 1268.06,-380 1277.6,-352.187 1283.7,-318.777 1286.99,-297.001"/>
<polygon fill="#555555" stroke="#555555" points="1288.73,-297.199 1287.73,-291.997 1285.27,-296.687 1288.73,-297.199"/>
</g>
<!--  selectors -->
<g id="node16" class="node"><title> selectors</title>
<ellipse fill="#eeeeee" stroke="grey" cx="1038.06" cy="-406" rx="40.0132" ry="18"/>
<text text-anchor="middle" x="1038.06" y="-403.5" font-family="Verdana" font-size="10.00"> selectors</text>
</g>
<!-- tagListPage&#45;&gt; selectors -->
<g id="edge54" class="edge"><title>tagListPage&#45;&gt; selectors</title>
<path fill="none" stroke="#555555" d="M936.225,-478.267C957.515,-463.158 989.672,-440.337 1012.14,-424.394"/>
<polygon fill="#555555" stroke="#555555" points="1013.43,-425.623 1016.49,-421.302 1011.4,-422.768 1013.43,-425.623"/>
</g>
<!--  &#160;pagebeforeshow.js -->
<g id="node67" class="node"><title> &#160;pagebeforeshow.js</title>
<ellipse fill="#eeeeee" stroke="#eeeeee" cx="914.056" cy="-406" rx="72.0237" ry="18"/>
<text text-anchor="middle" x="914.056" y="-403.5" font-family="Verdana" font-size="10.00"> &#160;pagebeforeshow.js</text>
</g>
<!-- tagListPage&#45;&gt; &#160;pagebeforeshow.js -->
<g id="edge52" class="edge"><title>tagListPage&#45;&gt; &#160;pagebeforeshow.js</title>
<path fill="none" stroke="#555555" d="M914.056,-475.766C914.056,-462.315 914.056,-443.904 914.056,-429.372"/>
<polygon fill="#555555" stroke="#555555" points="915.806,-429.21 914.056,-424.21 912.306,-429.21 915.806,-429.21"/>
</g>
<!--  a  -->
<g id="node17" class="node"><title> a </title>
<ellipse fill="#eeeeee" stroke="grey" cx="1084.06" cy="-318" rx="27" ry="18"/>
<text text-anchor="middle" x="1084.06" y="-315.5" font-family="Verdana" font-size="10.00"> a </text>
</g>
<!--  selectors&#45;&gt; a  -->
<g id="edge56" class="edge"><title> selectors&#45;&gt; a </title>
<path fill="none" stroke="#555555" d="M1047.36,-388.192C1054.69,-374.174 1064.94,-354.578 1072.74,-339.653"/>
<polygon fill="#555555" stroke="#555555" points="1074.31,-340.425 1075.07,-335.183 1071.21,-338.803 1074.31,-340.425"/>
</g>
<!--  click .js -->
<g id="node71" class="node"><title> click .js</title>
<ellipse fill="#eeeeee" stroke="#eeeeee" cx="1123.06" cy="-230" rx="35.2012" ry="18"/>
<text text-anchor="middle" x="1123.06" y="-227.5" font-family="Verdana" font-size="10.00"> click .js</text>
</g>
<!--  a &#45;&gt; click .js -->
<g id="edge58" class="edge"><title> a &#45;&gt; click .js</title>
<path fill="none" stroke="#555555" d="M1091.76,-300.614C1097.86,-286.843 1106.44,-267.502 1113.07,-252.542"/>
<polygon fill="#555555" stroke="#555555" points="1114.81,-252.931 1115.23,-247.651 1111.61,-251.513 1114.81,-252.931"/>
</g>
<!-- _init &#160; -->
<g id="node19" class="node"><title>_init &#160;</title>
<ellipse fill="#eeeeee" stroke="grey" cx="892.056" cy="-318" rx="27.1978" ry="18"/>
<text text-anchor="middle" x="892.056" y="-315.5" font-family="Verdana" font-size="10.00">_init &#160;</text>
</g>
<!-- tagListContent&#45;&gt;_init &#160; -->
<g id="edge62" class="edge"><title>tagListContent&#45;&gt;_init &#160;</title>
<path fill="none" stroke="#555555" d="M839.134,-431.867C839.06,-419.232 840.109,-402.172 845.056,-388 851.571,-369.339 864.289,-350.888 874.855,-337.618"/>
<polygon fill="#555555" stroke="#555555" points="876.265,-338.658 878.055,-333.672 873.546,-336.453 876.265,-338.658"/>
</g>
<!--  selectors  -->
<g id="node20" class="node"><title> selectors </title>
<ellipse fill="#eeeeee" stroke="grey" cx="705.056" cy="-230" rx="41.9758" ry="18"/>
<text text-anchor="middle" x="705.056" y="-227.5" font-family="Verdana" font-size="10.00"> selectors </text>
</g>
<!-- _init &#160;&#45;&gt; selectors  -->
<g id="edge72" class="edge"><title>_init &#160;&#45;&gt; selectors </title>
<path fill="none" stroke="#555555" d="M867.731,-310.037C853.865,-305.264 836.272,-298.812 821.056,-292 790.771,-278.441 757.492,-260.299 734.376,-247.145"/>
<polygon fill="#555555" stroke="#555555" points="735.101,-245.544 729.892,-244.583 733.365,-248.583 735.101,-245.544"/>
</g>
<!--  mustache.html -->
<g id="node75" class="node"><title> mustache.html</title>
<ellipse fill="#eeeeee" stroke="#eeeeee" cx="892.056" cy="-230" rx="57.2496" ry="18"/>
<text text-anchor="middle" x="892.056" y="-227.5" font-family="Verdana" font-size="10.00"> mustache.html</text>
</g>
<!-- _init &#160;&#45;&gt; mustache.html -->
<g id="edge64" class="edge"><title>_init &#160;&#45;&gt; mustache.html</title>
<path fill="none" stroke="#555555" d="M892.056,-299.766C892.056,-286.315 892.056,-267.904 892.056,-253.372"/>
<polygon fill="#555555" stroke="#555555" points="893.806,-253.21 892.056,-248.21 890.306,-253.21 893.806,-253.21"/>
</g>
<!--  after.js -->
<g id="node77" class="node"><title> after.js</title>
<ellipse fill="#eeeeee" stroke="#eeeeee" cx="984.056" cy="-230" rx="33.9733" ry="18"/>
<text text-anchor="middle" x="984.056" y="-227.5" font-family="Verdana" font-size="10.00"> after.js</text>
</g>
<!-- _init &#160;&#45;&gt; after.js -->
<g id="edge66" class="edge"><title>_init &#160;&#45;&gt; after.js</title>
<path fill="none" stroke="#555555" d="M907.663,-303.072C923.105,-288.301 946.818,-265.619 963.726,-249.446"/>
<polygon fill="#555555" stroke="#555555" points="965.035,-250.616 967.439,-245.895 962.616,-248.086 965.035,-250.616"/>
</g>
<!--  data.js -->
<g id="node79" class="node"><title> data.js</title>
<ellipse fill="#eeeeee" stroke="#eeeeee" cx="1053.06" cy="-230" rx="33.8573" ry="18"/>
<text text-anchor="middle" x="1053.06" y="-227.5" font-family="Verdana" font-size="10.00"> data.js</text>
</g>
<!-- _init &#160;&#45;&gt; data.js -->
<g id="edge68" class="edge"><title>_init &#160;&#45;&gt; data.js</title>
<path fill="none" stroke="#555555" d="M913.098,-306.634C921.49,-302.093 931.236,-296.809 940.056,-292 968.974,-276.235 1001.99,-258.103 1024.84,-245.537"/>
<polygon fill="#555555" stroke="#555555" points="1025.73,-247.044 1029.27,-243.101 1024.04,-243.977 1025.73,-247.044"/>
</g>
<!--  query.json -->
<g id="node81" class="node"><title> query.json</title>
<ellipse fill="#eeeeee" stroke="#eeeeee" cx="791.056" cy="-230" rx="43.2043" ry="18"/>
<text text-anchor="middle" x="791.056" y="-227.5" font-family="Verdana" font-size="10.00"> query.json</text>
</g>
<!-- _init &#160;&#45;&gt; query.json -->
<g id="edge70" class="edge"><title>_init &#160;&#45;&gt; query.json</title>
<path fill="none" stroke="#555555" d="M875.378,-303.469C858.605,-288.855 832.62,-266.214 813.929,-249.929"/>
<polygon fill="#555555" stroke="#555555" points="814.74,-248.314 809.82,-246.349 812.441,-250.953 814.74,-248.314"/>
</g>
<!--  &#160;a  -->
<g id="node21" class="node"><title> &#160;a </title>
<ellipse fill="#eeeeee" stroke="grey" cx="707.056" cy="-168" rx="27" ry="18"/>
<text text-anchor="middle" x="707.056" y="-165.5" font-family="Verdana" font-size="10.00"> &#160;a </text>
</g>
<!--  selectors &#45;&gt; &#160;a  -->
<g id="edge74" class="edge"><title> selectors &#45;&gt; &#160;a </title>
<path fill="none" stroke="#555555" d="M705.645,-211.733C705.851,-205.357 706.085,-198.112 706.302,-191.377"/>
<polygon fill="#555555" stroke="#555555" points="708.052,-191.404 706.464,-186.35 704.554,-191.291 708.052,-191.404"/>
</g>
<!--  click.js  -->
<g id="node85" class="node"><title> click.js </title>
<ellipse fill="#eeeeee" stroke="#eeeeee" cx="708.056" cy="-80" rx="35.2012" ry="18"/>
<text text-anchor="middle" x="708.056" y="-77.5" font-family="Verdana" font-size="10.00"> click.js </text>
</g>
<!--  &#160;a &#45;&gt; click.js  -->
<g id="edge76" class="edge"><title> &#160;a &#45;&gt; click.js </title>
<path fill="none" stroke="#555555" d="M707.263,-149.766C707.416,-136.315 707.625,-117.904 707.791,-103.372"/>
<polygon fill="#555555" stroke="#555555" points="709.542,-103.23 707.849,-98.2103 706.042,-103.19 709.542,-103.23"/>
</g>
<!--  pagebeforeshow.js  -->
<g id="node88" class="node"><title> pagebeforeshow.js </title>
<ellipse fill="#eeeeee" stroke="#eeeeee" cx="512.056" cy="-406" rx="72.0237" ry="18"/>
<text text-anchor="middle" x="512.056" y="-403.5" font-family="Verdana" font-size="10.00"> pagebeforeshow.js </text>
</g>
<!-- titleListPage&#45;&gt; pagebeforeshow.js  -->
<g id="edge80" class="edge"><title>titleListPage&#45;&gt; pagebeforeshow.js </title>
<path fill="none" stroke="#555555" d="M534.254,-475.766C529.937,-462.197 524.013,-443.58 519.371,-428.991"/>
<polygon fill="#555555" stroke="#555555" points="521.034,-428.444 517.85,-424.21 517.699,-429.506 521.034,-428.444"/>
</g>
<!-- updateTitleList -->
<g id="node24" class="node"><title>updateTitleList</title>
<ellipse fill="#eeeeee" stroke="grey" cx="424.056" cy="-318" rx="54.9037" ry="18"/>
<text text-anchor="middle" x="424.056" y="-315.5" font-family="Verdana" font-size="10.00">updateTitleList</text>
</g>
<!-- titleListContent&#45;&gt;updateTitleList -->
<g id="edge84" class="edge"><title>titleListContent&#45;&gt;updateTitleList</title>
<path fill="none" stroke="#555555" d="M440.659,-431.858C440.084,-429.229 439.53,-426.551 439.056,-424 433.798,-395.699 429.412,-362.845 426.767,-341.305"/>
<polygon fill="#555555" stroke="#555555" points="428.473,-340.835 426.133,-336.082 424.999,-341.257 428.473,-340.835"/>
</g>
<!--  &#160;selectors &#160; -->
<g id="node25" class="node"><title> &#160;selectors &#160;</title>
<ellipse fill="#eeeeee" stroke="grey" cx="336.056" cy="-230" rx="46.9013" ry="18"/>
<text text-anchor="middle" x="336.056" y="-227.5" font-family="Verdana" font-size="10.00"> &#160;selectors &#160;</text>
</g>
<!-- updateTitleList&#45;&gt; &#160;selectors &#160; -->
<g id="edge94" class="edge"><title>updateTitleList&#45;&gt; &#160;selectors &#160;</title>
<path fill="none" stroke="#555555" d="M406.67,-300.614C392.355,-286.299 372.021,-265.965 356.846,-250.79"/>
<polygon fill="#555555" stroke="#555555" points="357.88,-249.349 353.107,-247.05 355.405,-251.823 357.88,-249.349"/>
</g>
<!--  &#160;data.js &#160; -->
<g id="node92" class="node"><title> &#160;data.js &#160;</title>
<ellipse fill="#eeeeee" stroke="#eeeeee" cx="424.056" cy="-230" rx="40.1272" ry="18"/>
<text text-anchor="middle" x="424.056" y="-227.5" font-family="Verdana" font-size="10.00"> &#160;data.js &#160;</text>
</g>
<!-- updateTitleList&#45;&gt; &#160;data.js &#160; -->
<g id="edge86" class="edge"><title>updateTitleList&#45;&gt; &#160;data.js &#160;</title>
<path fill="none" stroke="#555555" d="M424.056,-299.766C424.056,-286.315 424.056,-267.904 424.056,-253.372"/>
<polygon fill="#555555" stroke="#555555" points="425.806,-253.21 424.056,-248.21 422.306,-253.21 425.806,-253.21"/>
</g>
<!--  &#160;async.js &#160; -->
<g id="node94" class="node"><title> &#160;async.js &#160;</title>
<ellipse fill="#eeeeee" stroke="#eeeeee" cx="421.056" cy="-80" rx="44.9379" ry="18"/>
<text text-anchor="middle" x="421.056" y="-77.5" font-family="Verdana" font-size="10.00"> &#160;async.js &#160;</text>
</g>
<!-- updateTitleList&#45;&gt; &#160;async.js &#160; -->
<g id="edge88" class="edge"><title>updateTitleList&#45;&gt; &#160;async.js &#160;</title>
<path fill="none" stroke="#555555" d="M436.553,-300.276C445.334,-286.685 456.324,-267.079 461.056,-248 473.989,-195.856 449.22,-134.4 433.192,-102.215"/>
<polygon fill="#555555" stroke="#555555" points="434.717,-101.353 430.896,-97.6832 431.594,-102.934 434.717,-101.353"/>
</g>
<!--  &#160;mustache.html &#160; -->
<g id="node96" class="node"><title> &#160;mustache.html &#160;</title>
<ellipse fill="#eeeeee" stroke="#eeeeee" cx="141.056" cy="-230" rx="64.021" ry="18"/>
<text text-anchor="middle" x="141.056" y="-227.5" font-family="Verdana" font-size="10.00"> &#160;mustache.html &#160;</text>
</g>
<!-- updateTitleList&#45;&gt; &#160;mustache.html &#160; -->
<g id="edge90" class="edge"><title>updateTitleList&#45;&gt; &#160;mustache.html &#160;</title>
<path fill="none" stroke="#555555" d="M374.134,-310.277C349.725,-305.931 320.072,-299.798 294.056,-292 253.794,-279.933 209.45,-261.344 178.915,-247.666"/>
<polygon fill="#555555" stroke="#555555" points="179.413,-245.972 174.135,-245.515 177.976,-249.163 179.413,-245.972"/>
</g>
<!--  &#160;after.js &#160; -->
<g id="node98" class="node"><title> &#160;after.js &#160;</title>
<ellipse fill="#eeeeee" stroke="#eeeeee" cx="247.056" cy="-230" rx="41.2443" ry="18"/>
<text text-anchor="middle" x="247.056" y="-227.5" font-family="Verdana" font-size="10.00"> &#160;after.js &#160;</text>
</g>
<!-- updateTitleList&#45;&gt; &#160;after.js &#160; -->
<g id="edge92" class="edge"><title>updateTitleList&#45;&gt; &#160;after.js &#160;</title>
<path fill="none" stroke="#555555" d="M389.621,-303.948C380.887,-300.213 371.569,-296.08 363.056,-292 333.326,-277.753 300.234,-259.856 277.029,-246.957"/>
<polygon fill="#555555" stroke="#555555" points="277.743,-245.352 272.524,-244.447 276.04,-248.409 277.743,-245.352"/>
</g>
<!--  &#160;a &#160; -->
<g id="node26" class="node"><title> &#160;a &#160;</title>
<ellipse fill="#eeeeee" stroke="grey" cx="335.056" cy="-168" rx="27" ry="18"/>
<text text-anchor="middle" x="335.056" y="-165.5" font-family="Verdana" font-size="10.00"> &#160;a &#160;</text>
</g>
<!--  &#160;selectors &#160;&#45;&gt; &#160;a &#160; -->
<g id="edge96" class="edge"><title> &#160;selectors &#160;&#45;&gt; &#160;a &#160;</title>
<path fill="none" stroke="#555555" d="M335.761,-211.733C335.659,-205.357 335.542,-198.112 335.433,-191.377"/>
<polygon fill="#555555" stroke="#555555" points="337.183,-191.321 335.352,-186.35 333.683,-191.378 337.183,-191.321"/>
</g>
<!--  &#160;click.js &#160; -->
<g id="node102" class="node"><title> &#160;click.js &#160;</title>
<ellipse fill="#eeeeee" stroke="#eeeeee" cx="335.056" cy="-80" rx="40.0132" ry="18"/>
<text text-anchor="middle" x="335.056" y="-77.5" font-family="Verdana" font-size="10.00"> &#160;click.js &#160;</text>
</g>
<!--  &#160;a &#160;&#45;&gt; &#160;click.js &#160; -->
<g id="edge98" class="edge"><title> &#160;a &#160;&#45;&gt; &#160;click.js &#160;</title>
<path fill="none" stroke="#555555" d="M335.056,-149.766C335.056,-136.315 335.056,-117.904 335.056,-103.372"/>
<polygon fill="#555555" stroke="#555555" points="336.806,-103.21 335.056,-98.2103 333.306,-103.21 336.806,-103.21"/>
</g>
<!-- DocbyTag -->
<g id="node28" class="node"><title>DocbyTag</title>
<ellipse fill="#eeeeee" stroke="grey" cx="1387.06" cy="-494" rx="40.0132" ry="18"/>
<text text-anchor="middle" x="1387.06" y="-491.5" font-family="Verdana" font-size="10.00">DocbyTag</text>
</g>
<!-- views&#45;&gt;DocbyTag -->
<g id="edge102" class="edge"><title>views&#45;&gt;DocbyTag</title>
<path fill="none" stroke="#555555" d="M1322.54,-535.476C1333.59,-528.372 1347.59,-519.37 1359.73,-511.57"/>
<polygon fill="#555555" stroke="#555555" points="1360.84,-512.932 1364.1,-508.756 1358.95,-509.988 1360.84,-512.932"/>
</g>
<!-- DocbyTag2 -->
<g id="node29" class="node"><title>DocbyTag2</title>
<ellipse fill="#eeeeee" stroke="grey" cx="1303.06" cy="-494" rx="43.2043" ry="18"/>
<text text-anchor="middle" x="1303.06" y="-491.5" font-family="Verdana" font-size="10.00">DocbyTag2</text>
</g>
<!-- views&#45;&gt;DocbyTag2 -->
<g id="edge108" class="edge"><title>views&#45;&gt;DocbyTag2</title>
<path fill="none" stroke="#555555" d="M1303.06,-529.718C1303.06,-525.76 1303.06,-521.521 1303.06,-517.397"/>
<polygon fill="#555555" stroke="#555555" points="1304.81,-517.263 1303.06,-512.263 1301.31,-517.263 1304.81,-517.263"/>
</g>
<!-- map.js -->
<g id="node106" class="node"><title>map.js</title>
<ellipse fill="#eeeeee" stroke="#eeeeee" cx="1450.06" cy="-406" rx="30.1638" ry="18"/>
<text text-anchor="middle" x="1450.06" y="-403.5" font-family="Verdana" font-size="10.00">map.js</text>
</g>
<!-- DocbyTag&#45;&gt;map.js -->
<g id="edge104" class="edge"><title>DocbyTag&#45;&gt;map.js</title>
<path fill="none" stroke="#555555" d="M1399.5,-476.614C1409.73,-462.329 1424.25,-442.049 1435.1,-426.885"/>
<polygon fill="#555555" stroke="#555555" points="1436.57,-427.837 1438.06,-422.753 1433.73,-425.8 1436.57,-427.837"/>
</g>
<!-- reduce.js -->
<g id="node108" class="node"><title>reduce.js</title>
<ellipse fill="#eeeeee" stroke="#eeeeee" cx="1381.06" cy="-406" rx="38.1664" ry="18"/>
<text text-anchor="middle" x="1381.06" y="-403.5" font-family="Verdana" font-size="10.00">reduce.js</text>
</g>
<!-- DocbyTag&#45;&gt;reduce.js -->
<g id="edge106" class="edge"><title>DocbyTag&#45;&gt;reduce.js</title>
<path fill="none" stroke="#555555" d="M1385.81,-475.766C1384.9,-462.315 1383.64,-443.904 1382.65,-429.372"/>
<polygon fill="#555555" stroke="#555555" points="1384.38,-429.08 1382.3,-424.21 1380.89,-429.318 1384.38,-429.08"/>
</g>
<!-- map.js  -->
<g id="node111" class="node"><title>map.js </title>
<ellipse fill="#eeeeee" stroke="#eeeeee" cx="1307.06" cy="-406" rx="32.1242" ry="18"/>
<text text-anchor="middle" x="1307.06" y="-403.5" font-family="Verdana" font-size="10.00">map.js </text>
</g>
<!-- DocbyTag2&#45;&gt;map.js  -->
<g id="edge110" class="edge"><title>DocbyTag2&#45;&gt;map.js </title>
<path fill="none" stroke="#555555" d="M1303.88,-475.766C1304.5,-462.315 1305.33,-443.904 1305.99,-429.372"/>
<polygon fill="#555555" stroke="#555555" points="1307.75,-429.285 1306.23,-424.21 1304.25,-429.126 1307.75,-429.285"/>
</g>
<!-- index.html&#45;&gt;logic.js -->
<g id="edge112" class="edge"><title>index.html&#45;&gt;logic.js</title>
<path fill="none" stroke="grey" d="M237.533,-484.149C192.339,-469.358 114.17,-436.893 74.0561,-380 -11.9961,-257.953 -35.4225,-145.562 74.0561,-44 86.8376,-32.1427 331.68,-22.4904 425.708,-19.2065"/>
<polygon fill="grey" stroke="grey" points="425.941,-20.9496 430.877,-19.0271 425.819,-17.4517 425.941,-20.9496"/>
<text text-anchor="middle" x="20.0561" y="-227.8" font-family="Times Roman,serif" font-size="8.00" fill="grey">loads</text>
</g>
<!-- pagebeforeshow.js&#45;&gt;shownote  -->
<g id="edge114" class="edge"><title>pagebeforeshow.js&#45;&gt;shownote </title>
<path fill="none" stroke="grey" d="M1204.97,-343.951C1209.34,-326.269 1215.06,-298.487 1215.06,-274 1215.06,-274 1215.06,-274 1215.06,-168 1215.06,-107.423 1012.31,-87.9917 918.117,-82.2331"/>
<polygon fill="grey" stroke="grey" points="917.989,-80.4724 912.893,-81.9209 917.78,-83.9661 917.989,-80.4724"/>
<text text-anchor="middle" x="1232.06" y="-227.8" font-family="Times Roman,serif" font-size="8.00" fill="grey">triggers</text>
</g>
<!-- click.js&#45;&gt;shownote  -->
<g id="edge116" class="edge"><title>click.js&#45;&gt;shownote </title>
<path fill="none" stroke="grey" d="M871.056,-149.766C871.056,-136.315 871.056,-117.904 871.056,-103.372"/>
<polygon fill="grey" stroke="grey" points="872.806,-103.21 871.056,-98.2103 869.306,-103.21 872.806,-103.21"/>
<text text-anchor="middle" x="888.056" y="-121.8" font-family="Times Roman,serif" font-size="8.00" fill="grey">triggers</text>
</g>
<!-- click.js&#45;&gt;logic.js -->
<g id="edge118" class="edge"><title>click.js&#45;&gt;logic.js</title>
<path fill="none" stroke="grey" d="M842.653,-160.406C813.167,-150.942 768.187,-131.748 745.056,-98 735.924,-84.6756 751.37,-73.5301 740.056,-62 723.283,-44.9056 569.166,-28.1892 497.898,-21.2968"/>
<polygon fill="grey" stroke="grey" points="498.058,-19.5542 492.913,-20.8177 497.723,-23.0381 498.058,-19.5542"/>
<text text-anchor="middle" x="786.556" y="-77.8" font-family="Times Roman,serif" font-size="8.00" fill="grey">doStoreDocument()</text>
</g>
<!--  click.js&#45;&gt;logic.js -->
<g id="edge134" class="edge"><title> click.js&#45;&gt;logic.js</title>
<path fill="none" stroke="grey" d="M502.743,-106.203C502.08,-103.476 501.486,-100.677 501.056,-98 500.103,-92.0668 500.939,-49.2724 498.056,-44 495.876,-40.0133 492.792,-36.4842 489.335,-33.4133"/>
<polygon fill="grey" stroke="grey" points="490.126,-31.8023 485.138,-30.0188 487.925,-34.5237 490.126,-31.8023"/>
<text text-anchor="middle" x="544.556" y="-77.8" font-family="Times Roman,serif" font-size="8.00" fill="grey">doDeleteDocument()</text>
</g>
<!--  &#160;click.js&#45;&gt;shownote  -->
<g id="edge138" class="edge"><title> &#160;click.js&#45;&gt;shownote </title>
<path fill="none" stroke="grey" d="M633.22,-152.652C652.954,-137.809 685.232,-116.12 717.056,-106 762.924,-91.4137 778.121,-108.666 825.056,-98 828.937,-97.1181 832.922,-95.9644 836.847,-94.6665"/>
<polygon fill="grey" stroke="grey" points="837.624,-96.2491 841.773,-92.9549 836.475,-92.9429 837.624,-96.2491"/>
<text text-anchor="middle" x="734.056" y="-121.8" font-family="Times Roman,serif" font-size="8.00" fill="grey">triggers</text>
</g>
<!--  &#160;click.js&#45;&gt;logic.js -->
<g id="edge136" class="edge"><title> &#160;click.js&#45;&gt;logic.js</title>
<path fill="none" stroke="grey" d="M606.546,-150.181C600.942,-136.217 593.513,-116.173 589.056,-98 587.132,-90.1557 589.143,-68.2735 584.056,-62 572.715,-48.0138 527.923,-34.3288 495.906,-26.0282"/>
<polygon fill="grey" stroke="grey" points="496.161,-24.2874 490.884,-24.743 495.294,-27.6781 496.161,-24.2874"/>
<text text-anchor="middle" x="630.556" y="-77.8" font-family="Times Roman,serif" font-size="8.00" fill="grey">doStoreDocument()</text>
</g>
<!--  pagebeforeshow.js&#45;&gt;shownote  -->
<g id="edge130" class="edge"><title> pagebeforeshow.js&#45;&gt;shownote </title>
<path fill="none" stroke="grey" d="M1288.06,-255.768C1283.09,-220.174 1266.67,-141.793 1216.06,-106 1192.32,-89.2099 1007.09,-82.9441 918.268,-80.8878"/>
<polygon fill="grey" stroke="grey" points="918.115,-79.134 913.076,-80.7699 918.035,-82.6331 918.115,-79.134"/>
<text text-anchor="middle" x="1293.06" y="-196.8" font-family="Times Roman,serif" font-size="8.00" fill="grey">triggers</text>
</g>
<!--  &#160;pagebeforeshow.js&#45;&gt;_init &#160; -->
<g id="edge126" class="edge"><title> &#160;pagebeforeshow.js&#45;&gt;_init &#160;</title>
<path fill="none" stroke="grey" d="M909.498,-387.766C906.112,-374.226 901.471,-355.658 897.827,-341.082"/>
<polygon fill="grey" stroke="grey" points="899.444,-340.335 896.533,-335.909 896.048,-341.184 899.444,-340.335"/>
<text text-anchor="middle" x="925.056" y="-359.8" font-family="Times Roman,serif" font-size="8.00" fill="grey">triggers</text>
</g>
<!--  pagebeforeshow.js &#45;&gt;updateTitleList -->
<g id="edge120" class="edge"><title> pagebeforeshow.js &#45;&gt;updateTitleList</title>
<path fill="none" stroke="grey" d="M494.248,-388.192C479.988,-373.932 459.957,-353.901 444.942,-338.886"/>
<polygon fill="grey" stroke="grey" points="446.012,-337.481 441.239,-335.183 443.537,-339.956 446.012,-337.481"/>
<text text-anchor="middle" x="503.056" y="-359.8" font-family="Times Roman,serif" font-size="8.00" fill="grey">triggers</text>
</g>
<!--  &#160;async.js &#160;&#45;&gt;logic.js -->
<g id="edge122" class="edge"><title> &#160;async.js &#160;&#45;&gt;logic.js</title>
<path fill="none" stroke="grey" d="M386.518,-68.2569C374.067,-62.0957 364.697,-53.7866 372.056,-44 378.826,-34.9969 404.622,-28.1244 426.87,-23.7128"/>
<polygon fill="grey" stroke="grey" points="427.269,-25.4182 431.848,-22.7542 426.607,-21.9814 427.269,-25.4182"/>
<text text-anchor="middle" x="396.056" y="-46.8" font-family="Times Roman,serif" font-size="8.00" fill="grey">doGetDoc()</text>
</g>
<!--  &#160;async.js &#160;&#45;&gt;logic.js -->
<g id="edge124" class="edge"><title> &#160;async.js &#160;&#45;&gt;logic.js</title>
<path fill="none" stroke="grey" d="M420.776,-61.8428C421.388,-55.8161 422.868,-49.2986 426.056,-44 428.342,-40.2016 431.417,-36.7978 434.811,-33.803"/>
<polygon fill="grey" stroke="grey" points="436.133,-34.9843 438.915,-30.4761 433.929,-32.2656 436.133,-34.9843"/>
<text text-anchor="middle" x="464.056" y="-46.8" font-family="Times Roman,serif" font-size="8.00" fill="grey">makeEmptyNote()</text>
</g>
<!--  &#160;async.js &#160;&#45;&gt;logic.js -->
<g id="edge128" class="edge"><title> &#160;async.js &#160;&#45;&gt;logic.js</title>
<path fill="none" stroke="grey" d="M388.862,-67.3979C383.304,-65.4459 377.548,-63.5624 372.056,-62 355.037,-57.158 344.24,-67.7113 333.056,-54 330.247,-50.556 330.241,-47.4392 333.056,-44 344.595,-29.904 391.814,-23.2806 425.785,-20.2898"/>
<polygon fill="grey" stroke="grey" points="426.28,-22.0043 431.115,-19.8404 425.986,-18.5167 426.28,-22.0043"/>
<text text-anchor="middle" x="351.556" y="-46.8" font-family="Times Roman,serif" font-size="8.00" fill="grey">doView()</text>
</g>
</g>
</svg>
